<svg width="42" height="21" viewBox="0 0 42 21" fill="none" xmlns="http://www.w3.org/2000/svg">
<path fill-rule="evenodd" clip-rule="evenodd" d="M10.8604 0.0140352C10.7302 0.0492271 10.6263 0.134664 10.5623 0.259065C10.5292 0.323533 10.5252 0.344908 10.5254 0.456255C10.5256 0.561502 10.5306 0.591475 10.5577 0.646873C10.5828 0.6983 10.8199 0.944288 11.6474 1.77743C13.1741 3.31451 13.6891 3.82243 13.7866 3.88729C13.9001 3.96283 14.0611 4.03585 14.1968 4.07333L14.3089 4.10428L19.2593 4.11085L24.2098 4.11743L24.3086 4.14578C24.5693 4.22056 24.7158 4.30356 24.8828 4.471C25.0551 4.64377 25.1516 4.80569 25.2128 5.0245C25.2415 5.12732 25.2531 5.43827 25.2323 5.54803C25.183 5.80812 25.0642 6.0286 24.8735 6.21414C24.7334 6.35044 24.5667 6.44615 24.3539 6.51263L24.2361 6.54944L20.8216 6.55602L17.407 6.56259L17.3322 6.59756C17.2322 6.64428 17.1499 6.72248 17.1031 6.81512C17.0691 6.88242 17.0646 6.90511 17.0644 7.0108C17.0641 7.22787 16.949 7.09795 18.6698 8.82332C19.5021 9.65785 20.2229 10.3708 20.2716 10.4077C20.3859 10.4943 20.5937 10.5955 20.7359 10.6339L20.8479 10.6642H22.6607C24.6461 10.6642 24.5658 10.6669 25.0163 10.5844C26.147 10.3774 27.2187 9.77499 27.9901 8.91268C28.7751 8.03525 29.2366 6.97494 29.3448 5.80012C29.3635 5.59712 29.3635 5.06993 29.3448 4.86675C29.2434 3.76464 28.8142 2.64078 28.1889 1.84044C27.4657 0.91467 26.4135 0.278324 25.271 0.0757695C24.8313 -0.0021996 25.456 0.00412391 17.8553 0.000784818C12.3738 -0.00162091 10.9081 0.00115205 10.8604 0.0140352ZM7.36771 15.4312C6.30717 15.5528 5.4565 16.2704 5.2064 17.2545C5.13024 17.5542 5.11885 17.9752 5.17878 18.275C5.30548 18.9087 5.66749 19.4463 6.21032 19.8068C7.08313 20.3864 8.26206 20.3821 9.13539 19.7959C9.97473 19.2326 10.372 18.2172 10.1287 17.2575C9.85054 16.1608 8.8332 15.4076 7.64457 15.4183C7.54668 15.4191 7.42209 15.425 7.36771 15.4312ZM13.4058 15.4312C12.3142 15.5563 11.4503 16.301 11.2258 17.3105C11.1081 17.8399 11.165 18.3491 11.3961 18.8323C11.8912 19.8676 13.0744 20.4259 14.2558 20.1817C15.3507 19.9553 16.1508 19.066 16.2262 17.992C16.303 16.8976 15.62 15.9054 14.5456 15.5504C14.1974 15.4353 13.7645 15.3901 13.4058 15.4312ZM34.6248 15.4315C33.9244 15.5203 33.4037 15.9539 33.2927 16.5408C33.2625 16.7001 33.2721 16.9816 33.3128 17.132C33.4363 17.5883 33.773 17.8612 34.4894 18.0856C34.6074 18.1226 34.8077 18.1852 34.9346 18.2248C35.348 18.3539 35.5426 18.4752 35.6056 18.6433C35.6836 18.8511 35.5867 19.0965 35.3721 19.2345C35.1927 19.3499 34.9972 19.3948 34.7265 19.3829C34.378 19.3675 34.0597 19.2358 33.8047 19.0014C33.7561 18.9567 33.7358 18.9467 33.6937 18.9467C33.6443 18.9467 33.6314 18.9574 33.3958 19.1923C33.0788 19.5085 33.0811 19.4913 33.3262 19.6946C33.6452 19.9592 34.0341 20.1364 34.4534 20.2082C34.7226 20.2543 35.0984 20.2463 35.384 20.1882C36.0409 20.0547 36.4791 19.6536 36.6046 19.071C36.6422 18.8961 36.6365 18.5914 36.5924 18.4259C36.4981 18.0717 36.2912 17.8405 35.8904 17.6413C35.729 17.5611 35.5489 17.4966 35.147 17.3751C34.6777 17.2332 34.5091 17.1579 34.3914 17.0376C34.3073 16.9517 34.2731 16.8706 34.2731 16.7573C34.2731 16.6476 34.3032 16.5736 34.383 16.4868C34.4586 16.4045 34.5537 16.3451 34.6798 16.3013C34.7729 16.269 34.8011 16.2654 34.9676 16.2651C35.1044 16.2648 35.176 16.2709 35.2444 16.2886C35.3756 16.3227 35.5849 16.428 35.6911 16.5134C35.8334 16.6279 35.8289 16.6295 36.0929 16.3745C36.3745 16.1024 36.3848 16.0906 36.3848 16.0399C36.3848 15.9837 36.3532 15.9475 36.2101 15.8396C35.9134 15.6158 35.563 15.4739 35.1986 15.4299C35.0669 15.414 34.7557 15.4149 34.6248 15.4315ZM29.534 15.5176C29.5184 15.5206 29.4969 15.5331 29.4861 15.5454C29.4567 15.5788 27.7188 19.9639 27.7127 20.0201C27.7084 20.0589 27.7141 20.0755 27.741 20.1023L27.7747 20.1359H28.2287C28.6417 20.1359 28.6852 20.1338 28.7103 20.1129C28.7288 20.0975 28.8014 19.9165 28.928 19.5706L29.118 19.0513L30.0213 19.0479L30.9245 19.0446L30.9456 19.1005C30.9572 19.1313 31.0435 19.3665 31.1375 19.6232C31.2535 19.9403 31.3173 20.0972 31.3365 20.1129C31.3622 20.1338 31.4059 20.1359 31.8187 20.1359H32.2727L32.3051 20.1036C32.3234 20.0853 32.3374 20.056 32.3374 20.0359C32.3374 20.0011 30.6165 15.6448 30.5725 15.5681C30.5602 15.5467 30.5355 15.5251 30.5177 15.5201C30.4832 15.5105 29.5821 15.5082 29.534 15.5176ZM0.0701283 15.5341C0.000558442 15.5622 0.00497507 15.4184 0.000874971 17.7946C-0.00120804 19.0064 0.000558526 20.0171 0.00479046 20.0406C0.00902239 20.0641 0.0251853 20.0952 0.0407287 20.1096C0.0684011 20.1353 0.0878079 20.1359 0.999572 20.1359C1.94354 20.1359 2.0391 20.132 2.27241 20.0837C2.5739 20.0214 2.92513 19.8691 3.17533 19.6921C3.33561 19.5787 3.59168 19.3235 3.70607 19.1631C3.81141 19.0154 3.9627 18.718 4.01709 18.5518C4.18545 18.0371 4.1657 17.4567 3.96297 16.9611C3.63786 16.1663 2.90849 15.6333 2.01239 15.5356C1.86066 15.519 0.110707 15.5177 0.0701283 15.5341ZM17.6245 15.5382C17.6064 15.5476 17.5845 15.5699 17.5759 15.5878C17.5639 15.6127 17.5621 16.1419 17.5682 17.848L17.5761 20.0756L17.6063 20.1057L17.6365 20.1359H18.0572C18.4629 20.1359 18.4792 20.1349 18.5127 20.1086L18.5474 20.0814V19.3065V18.5317L18.9906 18.5352L19.4338 18.5386L19.8719 19.3274C20.1792 19.8806 20.3195 20.1211 20.3417 20.1327C20.3656 20.1452 20.4802 20.1484 20.8129 20.1458L21.2524 20.1424L21.2776 20.1114C21.2914 20.0943 21.3028 20.062 21.3028 20.0396C21.3028 20.0101 21.1782 19.7806 20.8546 19.214C20.6081 18.7824 20.4032 18.421 20.3993 18.411C20.3949 18.3993 20.4127 18.3815 20.4487 18.3616C20.8728 18.1273 21.1544 17.7044 21.2113 17.2163C21.2524 16.8638 21.1641 16.4971 20.9663 16.1986C20.8977 16.0951 20.7273 15.9185 20.6184 15.838C20.4422 15.7078 20.228 15.613 19.9873 15.5589C19.8619 15.5307 19.8356 15.5299 18.7583 15.5256C17.8757 15.522 17.651 15.5246 17.6245 15.5382ZM37.9728 15.5539L37.9405 15.5861V17.8208V20.0555L37.9723 20.0924L38.0041 20.1293L38.3974 20.1334C38.6621 20.1362 38.8073 20.1327 38.8413 20.1227C38.9319 20.0961 38.9292 20.126 38.9292 19.1372V18.256H39.9312H40.9331V19.1558V20.0555L40.9649 20.0924L40.9967 20.1293L41.3987 20.1333C41.8622 20.1379 41.8835 20.1343 41.9085 20.0482C41.919 20.012 41.922 19.3776 41.9192 17.7936L41.9153 15.5895L41.8834 15.5555L41.8514 15.5216H41.4246H40.9979L40.9655 15.5539L40.9331 15.5861V16.4807V17.3752H39.9314H38.9298L38.9262 16.4823L38.9226 15.5894L38.8907 15.5555L38.8587 15.5216H38.4319H38.0052L37.9728 15.5539ZM23.6318 15.5469L22.8956 15.5545L22.8704 15.5855C22.8459 15.6158 22.8452 15.6708 22.8452 17.8571V20.0976L22.8784 20.1307L22.9116 20.1638L23.8903 20.1585C24.8178 20.1534 24.8765 20.1516 25.014 20.1254C25.5372 20.0256 25.9515 19.8128 26.2994 19.4652C26.3827 19.3819 26.4911 19.2576 26.54 19.1891C26.6477 19.0385 26.7987 18.7414 26.8529 18.5736C27.0916 17.835 26.946 17.0168 26.4702 16.4221C26.39 16.3219 26.1994 16.1345 26.0887 16.0471C25.8462 15.8555 25.5229 15.6992 25.2051 15.62C24.8982 15.5434 24.7294 15.5356 23.6318 15.5469ZM7.3558 16.3382C6.5732 16.502 6.04367 17.2341 6.14203 18.0163C6.18244 18.3376 6.35037 18.6782 6.57928 18.9032C6.90711 19.2253 7.3466 19.3844 7.80123 19.3454C8.41617 19.2926 8.92639 18.8923 9.12917 18.3034C9.2277 18.0173 9.22749 17.6414 9.12863 17.3516C8.94755 16.8207 8.48697 16.426 7.93617 16.3297C7.77809 16.3021 7.50971 16.306 7.3558 16.3382ZM13.4233 16.3291C12.8004 16.4466 12.3028 16.9358 12.1874 17.5443C12.16 17.6885 12.1599 17.9751 12.1871 18.1064C12.2502 18.4113 12.375 18.6548 12.5776 18.8684C13.0726 19.3904 13.8752 19.5033 14.4865 19.137C15.1001 18.7693 15.3779 18.0479 15.1651 17.3752C15.0058 16.8719 14.6013 16.4909 14.0804 16.3536C13.9738 16.3255 13.9173 16.3193 13.7354 16.3156C13.59 16.3127 13.4865 16.3172 13.4233 16.3291ZM1.00003 17.8287V19.2551H1.41359C1.86323 19.2551 1.97087 19.2444 2.16678 19.1806C2.67012 19.0166 3.0464 18.5706 3.12317 18.0471C3.14804 17.8776 3.13286 17.5818 3.09174 17.4344C2.96501 16.9799 2.62713 16.624 2.18056 16.4745C2.00568 16.4159 1.86285 16.4026 1.41202 16.4025L1.00003 16.4024V17.8287ZM18.5606 17.0203V17.6381H19.1125C19.4328 17.6381 19.6942 17.6325 19.7354 17.6247C19.9062 17.5924 20.0754 17.471 20.1537 17.3245C20.2329 17.1764 20.2521 17.0354 20.2146 16.8768C20.1596 16.644 19.9648 16.4597 19.7282 16.4166C19.6802 16.4079 19.4396 16.4024 19.1053 16.4024H18.5606V17.0203ZM23.834 17.855V19.2814H24.2134C24.7558 19.2814 24.9131 19.2567 25.1722 19.1308C25.5457 18.9494 25.8032 18.6438 25.926 18.2363C25.9598 18.1241 25.9617 18.1036 25.962 17.8419C25.9623 17.5777 25.9607 17.5607 25.926 17.4475C25.8465 17.1882 25.7383 17.0091 25.5485 16.8231C25.3512 16.6295 25.127 16.511 24.8537 16.4558C24.7342 16.4316 24.6719 16.4287 24.2769 16.4287H23.834V17.855ZM29.7381 17.4244L29.4548 18.1837L29.7434 18.1872C29.9022 18.1892 30.1583 18.1892 30.3126 18.1872L30.5931 18.1837L30.312 17.4292C30.1574 17.0142 30.0288 16.6725 30.0261 16.6699C30.0235 16.6673 29.8939 17.0069 29.7381 17.4244Z" fill="black"/>
</svg>
