<svg width="11" height="19" viewBox="0 0 11 19" fill="none" xmlns="http://www.w3.org/2000/svg">
<path fill-rule="evenodd" clip-rule="evenodd" d="M6.94651 0.070638C5.30223 0.34087 4.07245 1.24568 3.48384 2.61823C3.16246 3.3678 3.1248 3.63148 3.09939 5.31162L3.07633 6.83514L1.72339 6.83584C0.201078 6.83658 0.160077 6.84407 0.0561549 7.13882C-0.0340173 7.39468 -0.00905841 10.3902 0.0845513 10.543C0.188125 10.7122 0.447084 10.7423 1.80271 10.7425L3.08554 10.7428V14.7409V18.7389L3.20581 18.8695L3.32607 19H5.22781H7.12954L7.24976 18.8695L7.36997 18.7389V14.7194V10.6998L9.03716 10.6864C10.5599 10.6742 10.7121 10.6658 10.7933 10.5899C10.8755 10.5132 10.8822 10.3747 10.8822 8.76533V7.02382L10.7688 6.91785C10.656 6.81244 10.6468 6.81179 9.00846 6.79843L7.36155 6.78499L7.37824 5.54241C7.39468 4.31643 7.39652 4.29708 7.51942 4.09439C7.7465 3.71982 7.83891 3.69865 9.36507 3.67181C10.5174 3.65153 10.7048 3.63799 10.8215 3.56654C10.8951 3.52146 10.9679 3.43772 10.9832 3.38046C10.9985 3.32324 11.0045 2.57846 10.9964 1.72548L10.9818 0.174516L10.8642 0.0856638C10.7533 0.00183552 10.6495 -0.00300247 9.04583 0.00095169C7.82297 0.00392894 7.23307 0.0235137 6.94651 0.070638Z" fill="white"/>
</svg>
