<svg width="30" height="30" viewBox="0 0 30 30" fill="none" xmlns="http://www.w3.org/2000/svg">
<path fill-rule="evenodd" clip-rule="evenodd" d="M7.14851 0.0384425C5.31649 0.256263 3.69654 1.05042 2.36926 2.38134C1.20365 3.55015 0.499595 4.84938 0.133752 6.50666L0.000878022 7.10864V15.0032V22.8978L0.133752 23.4998C0.499595 25.1571 1.20365 26.4563 2.36926 27.6251C3.53486 28.7939 4.83053 29.4999 6.48326 29.8668L7.0836 30H14.9565H22.8295L23.4298 29.8668C24.1061 29.7167 24.9451 29.4261 25.4705 29.1602C26.9193 28.4268 28.3433 26.9988 29.0747 25.5461C29.4776 24.7457 29.8829 23.3192 29.8829 22.7013C29.8829 22.5711 29.9093 22.4482 29.9415 22.4282C29.98 22.4044 30 19.8439 30 14.9376C30 9.98298 29.9804 7.49539 29.9415 7.51951C29.9061 7.54147 29.8829 7.45959 29.8829 7.31208C29.8829 6.68756 29.4797 5.26489 29.0747 4.46035C28.3433 3.00763 26.9193 1.57962 25.4705 0.846273C24.9606 0.588129 24.1174 0.293065 23.4597 0.142627L22.888 0.0118533L15.2199 0.00117064C11.0025 -0.00469894 7.37036 0.0120881 7.14851 0.0384425ZM23.0636 3.89129C21.6273 4.10365 20.6623 5.48224 21.0066 6.82984C21.2516 7.78904 21.8554 8.3966 22.8062 8.6409C24.4138 9.05388 25.9957 7.59042 25.7275 5.93837C25.5765 5.00775 24.9223 4.25356 24.0294 3.98051C23.7712 3.90151 23.293 3.85737 23.0636 3.89129ZM23.1515 5.67928C22.5918 5.89751 22.5448 6.62305 23.0738 6.8748C23.4405 7.04924 23.8121 6.88378 23.9655 6.47772C24.1357 6.02723 23.6019 5.50361 23.1515 5.67928ZM13.9716 6.85097C11.0429 7.19205 8.42715 9.22081 7.34642 11.9896C6.43778 14.3172 6.62779 16.9793 7.85251 19.0826C9.92061 22.634 14.1642 24.1249 17.962 22.6343C20.0424 21.8177 21.7523 20.1031 22.5667 18.0169C23.6219 15.3135 23.2023 12.3064 21.45 10.0141C21.0599 9.50384 20.3485 8.79656 19.8442 8.41774C18.1938 7.1779 16.0578 6.60803 13.9716 6.85097ZM0 15.0032C0 19.1193 0.00696565 20.8031 0.0155117 18.7451C0.0240578 16.6871 0.0240578 13.3194 0.0155117 11.2614C0.00696565 9.20338 0 10.8872 0 15.0032ZM13.9907 8.62769C11.72 9.00305 9.80365 10.5334 8.99142 12.6201C8.65766 13.4775 8.54984 14.0594 8.54984 15.0032C8.54984 15.9471 8.65766 16.5289 8.99142 17.3863C9.7553 19.3489 11.5705 20.8762 13.6688 21.3218C14.3444 21.4654 15.5686 21.4654 16.2443 21.3218C18.3426 20.8762 20.1578 19.3489 20.9217 17.3863C21.2554 16.5289 21.3632 15.9471 21.3632 15.0032C21.3632 14.0594 21.2554 13.4775 20.9217 12.6201C20.162 10.6684 18.3325 9.12279 16.2736 8.69325C15.6442 8.56195 14.5742 8.53125 13.9907 8.62769Z" fill="black"/>
</svg>
