<svg width="27" height="25" viewBox="0 0 27 25" fill="none" xmlns="http://www.w3.org/2000/svg">
<path fill-rule="evenodd" clip-rule="evenodd" d="M11.9186 0.621041C9.93286 1.78994 8.09709 3.27484 6.38276 5.09883C5.50034 6.03775 4.23966 7.6419 3.90309 8.25404C3.67713 8.6649 3.67763 8.67169 3.93868 8.85495C4.08388 8.95704 4.59776 9.10166 5.08065 9.17655C5.56354 9.25134 6.01197 9.36941 6.07705 9.4388C6.14225 9.5082 6.2592 10.4391 6.33697 11.5076C6.51876 14.0039 6.83032 16.6978 6.9754 17.029C7.08825 17.2862 7.09808 17.2875 8.73912 17.2575L10.3895 17.2274L10.3473 15.7165L10.3053 14.2056L9.85895 13.8039C9.50981 13.4897 9.39223 13.2781 9.31907 12.8326C9.20584 12.1424 9.17984 7.18345 9.28759 6.83432C9.34184 6.65841 9.44088 6.59538 9.62602 6.61848C9.88321 6.65053 9.88694 6.68604 9.847 8.76105C9.81204 10.5809 9.83356 10.8904 10.003 11.0124C10.4778 11.3542 10.541 11.1331 10.5994 8.92434C10.6559 6.78533 10.7221 6.49836 11.1277 6.63337C11.2957 6.68928 11.3227 6.99577 11.3227 8.84858C11.3227 10.7348 11.3476 11.0071 11.5251 11.0662C12.0023 11.225 12.0691 10.97 12.071 8.98521C12.0728 6.81468 12.1149 6.57143 12.4793 6.61848C12.7274 6.65042 12.7328 6.71809 12.7431 9.95359L12.7536 13.256L12.2809 13.7823C11.8821 14.2263 11.8181 14.3681 11.8723 14.6889C11.9076 14.8979 11.9731 15.5061 12.0177 16.0403C12.0623 16.5745 12.155 17.0723 12.2236 17.1465C12.4043 17.3416 15.5946 17.3362 15.7818 17.1405C15.856 17.0631 15.955 16.4101 16.0021 15.6896L16.0874 14.3796L15.7892 14.3258C15.6252 14.2962 15.2864 14.2436 15.0364 14.2088C14.7863 14.1742 14.5536 14.082 14.5192 14.0041C14.3402 13.5999 14.9079 10.6706 15.4517 9.19112C16.2767 6.94678 17.4252 5.54671 17.7387 6.40339C17.8656 6.75025 17.8203 12.3878 17.6733 14.5294C17.604 15.5384 17.5467 16.5722 17.5457 16.8268L17.5439 17.2895L18.6935 17.2585C19.7821 17.229 19.8508 17.2131 19.9885 16.9576C20.1662 16.6278 20.3433 15.1858 20.5973 11.9982C20.7037 10.6653 20.8459 9.51715 20.9135 9.44657C20.9809 9.37599 21.4123 9.25803 21.8719 9.18443C22.961 9.01003 23.1431 8.92056 23.1431 8.55978C23.1431 8.24853 22.0573 6.70482 21.0775 5.62312C20.6857 5.19056 20.5301 4.91903 20.5301 4.6679C20.5301 4.07778 20.1356 2.08036 19.9833 1.8997C19.8325 1.72098 18.1607 1.46208 17.8419 1.56816C17.7463 1.6 17.6684 1.77278 17.6684 1.95312C17.6684 2.13303 17.6353 2.28023 17.5948 2.28023C17.5545 2.28023 17.2325 2.06633 16.8794 1.80494C16.5264 1.54345 15.737 1.03352 15.1255 0.671764C13.6299 -0.21298 13.3429 -0.217512 11.9186 0.621041ZM17.7928 21.5443V23.7691L18.3216 23.7359L18.8504 23.7027V21.5443V19.3859L18.3216 19.3527L17.7928 19.3195V21.5443ZM0.0883418 19.7229C0.039816 19.7651 0 20.6899 0 21.7782V23.7567H0.559913H1.11983V22.6775C1.11983 22.0839 1.16188 21.5987 1.21314 21.5992C1.26441 21.5998 1.5303 22.0876 1.80379 22.6833L2.30112 23.7663L2.85904 23.7346L3.41696 23.7027L3.91703 22.6514C4.19213 22.0731 4.45902 21.5997 4.51041 21.5991C4.5618 21.5987 4.60373 22.0867 4.60373 22.6836V23.7691L5.13254 23.7359L5.66134 23.7027V21.7062V19.7096H4.91641H4.17148L3.55806 21.0856C3.22074 21.8424 2.90446 22.4616 2.85531 22.4616C2.80628 22.4616 2.48738 21.8424 2.14696 21.0856L1.52769 19.7096L0.852312 19.6779C0.480779 19.6605 0.136992 19.6807 0.0883418 19.7229ZM7.01982 20.7315C6.6275 20.8692 6.11649 21.4518 6.02753 21.8628C5.73015 23.2375 7.24478 24.2632 8.76077 23.7137C9.30613 23.5161 9.40442 23.3575 9.13915 23.1033C8.95587 22.9276 8.81763 22.9058 8.25386 22.9633C7.70179 23.0196 7.54041 22.996 7.32503 22.8275C7.06735 22.6258 7.07879 22.6229 8.35365 22.5696L9.64295 22.5156L9.61955 22.0578C9.58969 21.4758 9.26619 20.9995 8.75866 20.7906C8.33063 20.6144 7.43975 20.5841 7.01982 20.7315ZM10.037 20.6989C9.99134 20.7384 9.95401 21.4426 9.95401 22.2638V23.7567H10.4517H10.9494V22.8634C10.9494 21.8284 11.1302 21.4903 11.6838 21.4903C12.2835 21.4903 12.4425 21.7691 12.4425 22.8209V23.7567H12.9402H13.4379V22.6181C13.4379 21.3572 13.2959 20.9689 12.7571 20.7559C12.3358 20.5894 11.4154 20.5897 11.2231 20.7565C11.1071 20.8572 11.0406 20.8572 10.9245 20.7565C10.7649 20.618 10.1745 20.5797 10.037 20.6989ZM13.9 20.6938C13.8511 20.7362 13.8114 21.2606 13.8117 21.8591C13.8121 22.7563 13.8557 23.0093 14.0605 23.3007C14.3674 23.7371 14.8393 23.9053 15.4909 23.8107C15.7647 23.7708 16.2841 23.7453 16.6453 23.7538L17.3021 23.7694L17.2675 22.2252L17.2329 20.6809H16.7974H16.3619L16.3303 21.4364C16.2912 22.3681 16.229 22.6154 15.9795 22.8318C15.7375 23.0417 15.4257 23.0481 15.1127 22.8495C14.9157 22.7246 14.862 22.5195 14.8088 21.6893L14.7444 20.6809L14.3666 20.6489C14.1588 20.6312 13.9489 20.6515 13.9 20.6938ZM20.2771 20.7155C19.5375 20.9998 19.1615 21.5002 19.1615 22.1999C19.1615 23.9317 21.8341 24.5275 22.7387 22.9974C23.0749 22.4286 23.0927 21.9966 22.8007 21.4925C22.476 20.932 21.8692 20.6253 21.1027 20.6345C20.7536 20.6387 20.3821 20.6751 20.2771 20.7155ZM23.935 20.8341C23.4284 21.102 23.0784 21.8587 23.2002 22.4224C23.3896 23.2978 24.5789 23.8669 25.4587 23.5029C25.8748 23.3308 25.8804 23.3318 25.8804 23.5798C25.8804 23.8433 25.576 24.1469 25.2583 24.2003C25.1556 24.2175 24.856 24.1945 24.5926 24.1491C24.2191 24.0848 24.0613 24.1076 23.8772 24.2522C23.7472 24.3542 23.6408 24.4948 23.6408 24.5646C23.6408 25.011 25.5916 25.1699 26.2135 24.7743C26.8694 24.357 26.9999 23.9614 27 22.3895C27.0001 21.6079 26.9663 20.8916 26.9247 20.7977C26.8381 20.602 26.2485 20.5667 26.043 20.7449C25.9447 20.8302 25.8369 20.8302 25.6531 20.7449C25.2532 20.5593 24.3678 20.6053 23.935 20.8341ZM7.2877 21.552C6.9581 21.8378 7.06461 21.922 7.75579 21.922C8.53183 21.922 8.6621 21.8507 8.37966 21.58C8.12683 21.3376 7.55186 21.323 7.2877 21.552ZM24.5117 21.5983C24.3749 21.717 24.2629 21.9355 24.2629 22.0839C24.2629 22.2323 24.3749 22.4508 24.5117 22.5696C24.6486 22.6883 24.9006 22.7854 25.0717 22.7854C25.2427 22.7854 25.4947 22.6883 25.6316 22.5696C25.7684 22.4508 25.8804 22.2323 25.8804 22.0839C25.8804 21.9355 25.7684 21.717 25.6316 21.5983C25.4947 21.4795 25.2427 21.3824 25.0717 21.3824C24.9006 21.3824 24.6486 21.4795 24.5117 21.5983ZM20.4984 21.6792C20.0782 22.0868 20.2211 22.6929 20.7853 22.8956C21.1227 23.0168 21.2078 23.0076 21.5024 22.8177C21.9385 22.5364 22.0111 22.0194 21.6573 21.7126C21.3439 21.4407 20.7616 21.424 20.4984 21.6792Z" fill="black"/>
</svg>
