<svg width="22" height="24" viewBox="0 0 22 24" fill="none" xmlns="http://www.w3.org/2000/svg">
<path fill-rule="evenodd" clip-rule="evenodd" d="M9.71142 0.596199C8.09344 1.71835 6.59763 3.14385 5.20077 4.89488C4.48176 5.79624 3.45454 7.33623 3.1803 7.92387C2.99618 8.3183 2.99659 8.32483 3.20929 8.50075C3.32761 8.59876 3.74632 8.73759 4.13979 8.80949C4.53326 8.88129 4.89864 8.99463 4.95167 9.06125C5.00479 9.12787 5.10009 10.0216 5.16346 11.0473C5.31158 13.4437 5.56544 16.0299 5.68366 16.3478C5.77561 16.5948 5.78362 16.596 7.12077 16.5672L8.46552 16.5383L8.43115 15.0879L8.39688 13.6374L8.03322 13.2518C7.74874 12.9501 7.65293 12.747 7.59331 12.3193C7.50106 11.6567 7.47987 6.89611 7.56766 6.56095C7.61187 6.39207 7.69257 6.33157 7.84343 6.35374C8.05299 6.38451 8.05603 6.4186 8.02348 8.41061C7.995 10.1577 8.01253 10.4547 8.15062 10.5719C8.5375 10.9 8.589 10.6877 8.63655 8.56737C8.68258 6.51391 8.73651 6.23843 9.06702 6.36804C9.20389 6.4217 9.22589 6.71594 9.22589 8.49463C9.22589 10.3054 9.24617 10.5668 9.39084 10.6235C9.77965 10.776 9.83409 10.5312 9.83561 8.6258C9.83713 6.54209 9.8714 6.30857 10.1684 6.35374C10.3705 6.38441 10.3749 6.44937 10.3833 9.55545L10.3918 12.7258L10.0066 13.231C9.68171 13.6573 9.6296 13.7934 9.6737 14.1013C9.7025 14.302 9.75582 14.8858 9.79222 15.3987C9.82852 15.9115 9.90405 16.3894 9.96001 16.4606C10.1072 16.6479 12.7067 16.6428 12.8593 16.4549C12.9197 16.3805 13.0004 15.7537 13.0387 15.0621L13.1083 13.8044L12.8653 13.7528C12.7316 13.7243 12.4556 13.6739 12.2519 13.6405C12.0481 13.6072 11.8585 13.5188 11.8304 13.444C11.6846 13.056 12.1472 10.2438 12.5903 8.82348C13.2625 6.66891 14.1983 5.32484 14.4537 6.14726C14.5571 6.48024 14.5202 11.8923 14.4005 13.9482C14.344 14.9169 14.2973 15.9093 14.2965 16.1537L14.2951 16.5979L15.2317 16.5682C16.1187 16.5399 16.1747 16.5245 16.2869 16.2793C16.4317 15.9627 16.576 14.5783 16.783 11.5182C16.8697 10.2387 16.9856 9.13647 17.0406 9.06871C17.0956 9.00095 17.4471 8.88771 17.8216 8.81705C18.709 8.64963 18.8573 8.56374 18.8573 8.21739C18.8573 7.91859 17.9726 6.43662 17.1743 5.39819C16.855 4.98294 16.7283 4.72227 16.7283 4.48118C16.7283 3.91467 16.4068 1.99715 16.2827 1.82371C16.1598 1.65214 14.7976 1.40359 14.5379 1.50544C14.4599 1.536 14.3964 1.70187 14.3964 1.875C14.3964 2.04771 14.3695 2.18902 14.3365 2.18902C14.3037 2.18902 14.0413 1.98368 13.7536 1.73275C13.4659 1.48171 12.8228 0.992178 12.3245 0.644894C11.1058 -0.204461 10.872 -0.208812 9.71142 0.596199ZM14.4978 20.6825V22.8183L14.9287 22.7864L15.3596 22.7546V20.6825V18.6104L14.9287 18.5786L14.4978 18.5467V20.6825ZM0.0719822 18.934C0.0324427 18.9745 0 19.8623 0 20.907V22.8064H0.456225H0.912451V21.7704C0.912451 21.2006 0.946718 20.7347 0.988488 20.7353C1.03026 20.7358 1.24691 21.2041 1.46976 21.776L1.87498 22.8157L2.32959 22.7852L2.78419 22.7546L3.19165 21.7453C3.41581 21.1902 3.63328 20.7357 3.67515 20.7352C3.71702 20.7347 3.75119 21.2032 3.75119 21.7763V22.8183L4.18207 22.7864L4.61295 22.7546V20.8379V18.9212H4.00596H3.39898L2.89916 20.2422C2.62431 20.9687 2.36659 21.5632 2.32655 21.5632C2.2866 21.5632 2.02676 20.9687 1.74937 20.2422L1.24479 18.9212L0.694476 18.8908C0.391746 18.8741 0.111623 18.8935 0.0719822 18.934ZM5.71985 19.9023C5.40019 20.0345 4.98381 20.5937 4.91132 20.9883C4.66901 22.308 5.90315 23.2927 7.13841 22.7652C7.58277 22.5755 7.66286 22.4232 7.44671 22.1792C7.29738 22.0105 7.18474 21.9896 6.72537 22.0447C6.27553 22.0988 6.14404 22.0761 5.96854 21.9144C5.75858 21.7208 5.76791 21.718 6.80668 21.6668L7.85722 21.615L7.83815 21.1755C7.81382 20.6167 7.55023 20.1595 7.13668 19.959C6.78792 19.7899 6.06202 19.7608 5.71985 19.9023ZM8.1783 19.871C8.14109 19.9089 8.11067 20.5849 8.11067 21.3733V22.8064H8.51621H8.92174V21.9489C8.92174 20.9552 9.06905 20.6307 9.52011 20.6307C10.0088 20.6307 10.1383 20.8983 10.1383 21.9081V22.8064H10.5439H10.9494V21.7134C10.9494 20.5029 10.8337 20.1301 10.3946 19.9257C10.0514 19.7658 9.30142 19.7661 9.14478 19.9262C9.05019 20.0229 8.99606 20.0229 8.90147 19.9262C8.77139 19.7933 8.29033 19.7565 8.1783 19.871ZM11.3259 19.866C11.2861 19.9067 11.2538 20.4102 11.254 20.9847C11.2543 21.846 11.2899 22.089 11.4567 22.3687C11.7067 22.7876 12.0913 22.9491 12.6222 22.8582C12.8453 22.82 13.2686 22.7955 13.5629 22.8036L14.098 22.8187L14.0698 21.3362L14.0416 19.8537H13.6868H13.3319L13.3062 20.5789C13.2743 21.4733 13.2236 21.7108 13.0204 21.9185C12.8232 22.12 12.5691 22.1262 12.314 21.9355C12.1535 21.8157 12.1097 21.6187 12.0665 20.8218L12.0139 19.8537L11.7061 19.8229C11.5368 19.8059 11.3658 19.8254 11.3259 19.866ZM16.5221 19.8868C15.9194 20.1598 15.613 20.6402 15.613 21.3119C15.613 22.9745 17.7908 23.5464 18.5278 22.0775C18.8018 21.5315 18.8163 21.1167 18.5783 20.6328C18.3138 20.0947 17.8194 19.8003 17.1948 19.8091C16.9104 19.8132 16.6076 19.8481 16.5221 19.8868ZM19.5026 20.0007C19.0898 20.258 18.8046 20.9843 18.9039 21.5255C19.0582 22.3659 20.0273 22.9122 20.7442 22.5628C21.0832 22.3976 21.0878 22.3985 21.0878 22.6366C21.0878 22.8895 20.8397 23.1811 20.5808 23.2322C20.4972 23.2488 20.2531 23.2268 20.0384 23.1831C19.7341 23.1214 19.6055 23.1433 19.4555 23.2821C19.3495 23.38 19.2629 23.515 19.2629 23.582C19.2629 24.0105 20.8524 24.1631 21.3592 23.7833C21.8935 23.3827 21.9999 23.003 22 21.494C22.0001 20.7436 21.9725 20.0559 21.9387 19.9658C21.8681 19.778 21.3876 19.7441 21.2203 19.9151C21.1402 19.997 21.0523 19.997 20.9025 19.9151C20.5767 19.7369 19.8552 19.7811 19.5026 20.0007ZM5.93813 20.6899C5.66956 20.9643 5.75635 21.0451 6.31953 21.0451C6.95186 21.0451 7.05801 20.9767 6.82787 20.7168C6.62186 20.4841 6.15337 20.47 5.93813 20.6899ZM19.9725 20.7343C19.861 20.8483 19.7698 21.0581 19.7698 21.2006C19.7698 21.343 19.861 21.5528 19.9725 21.6668C20.0841 21.7807 20.2894 21.874 20.4288 21.874C20.5682 21.874 20.7735 21.7807 20.885 21.6668C20.9965 21.5528 21.0878 21.343 21.0878 21.2006C21.0878 21.0581 20.9965 20.8483 20.885 20.7343C20.7735 20.6204 20.5682 20.5271 20.4288 20.5271C20.2894 20.5271 20.0841 20.6204 19.9725 20.7343ZM16.7024 20.812C16.36 21.2034 16.4764 21.7852 16.9362 21.9798C17.2111 22.0961 17.2804 22.0873 17.5205 21.905C17.8758 21.635 17.9349 21.1386 17.6467 20.844C17.3913 20.5831 16.9168 20.567 16.7024 20.812Z" fill="black"/>
</svg>
