<svg width="30" height="31" viewBox="0 0 30 31" fill="none" xmlns="http://www.w3.org/2000/svg">
<path fill-rule="evenodd" clip-rule="evenodd" d="M1.93495 0.100081C1.16477 0.310923 0.569342 0.817413 0.222986 1.55623L0 2.03183V15.0093V27.9868L0.220451 28.4539C0.585689 29.2277 1.16337 29.7067 2.00167 29.931C2.49595 30.0632 27.4624 30.0632 27.9567 29.931C28.9587 29.663 29.6335 28.9882 29.901 27.9868C30.033 27.4927 30.033 2.52597 29.901 2.03183C29.7125 1.32597 29.3341 0.796996 28.7509 0.423617C28.0397 -0.0316294 28.9522 -0.00387276 14.9362 0.00273276C4.43543 0.00773693 2.21151 0.0243508 1.93495 0.100081ZM6.28578 8.44558C6.21632 8.51497 6.2308 11.8346 6.30266 12.3317C6.46693 13.4682 7.27641 14.2689 8.32321 14.3306C8.92625 14.3661 9.1481 14.316 9.60488 14.0409C9.81733 13.913 10.0025 13.8083 10.0164 13.8083C10.0304 13.8083 10.0417 13.9134 10.0417 14.0418V14.2754H10.4754H10.9091V11.3396V8.40381H10.4754H10.0417V10.3409C10.0417 12.4341 10.0303 12.514 9.66373 12.9946C9.21049 13.5889 8.13792 13.6426 7.63117 13.0965C7.2752 12.7129 7.27494 12.7113 7.23937 10.5056L7.20601 8.43717L6.76952 8.41776C6.52938 8.40708 6.31173 8.41962 6.28578 8.44558ZM11.659 11.3229L11.6764 14.242L12.0934 14.2619L12.5104 14.2817V14.0451C12.5104 13.7896 12.5766 13.7469 12.7147 13.9133C12.995 14.2511 13.7619 14.4461 14.3919 14.3398C15.5522 14.1441 16.312 13.1419 16.2324 11.912C16.1862 11.1991 15.8548 10.6052 15.3128 10.264C15.1283 10.1479 14.6007 9.97198 14.2562 9.91167C13.9357 9.85562 13.1761 10.0471 12.8179 10.2743L12.5104 10.4693V9.43654V8.40381H12.076H11.6416L11.659 11.3229ZM18.2449 9.96845C17.7736 10.1421 17.4702 10.333 17.2004 10.6257C16.8338 11.0234 16.7307 11.2393 16.6457 11.7874C16.4854 12.8207 16.9759 13.709 17.9536 14.156C18.2245 14.2799 18.3986 14.3061 18.9491 14.3059C19.5404 14.3056 19.6547 14.2855 19.9531 14.1294C20.3027 13.9465 20.7173 13.5725 20.7173 13.4399C20.7173 13.3979 20.596 13.2661 20.4477 13.147L20.1781 12.9303L19.9194 13.164C19.7739 13.2954 19.4977 13.4491 19.2882 13.5151C18.9359 13.6262 18.8964 13.6264 18.5554 13.5189C18.087 13.3712 17.5813 12.8266 17.5813 12.4695C17.5813 12.4325 18.2593 12.4072 19.2494 12.4072H20.9175V11.976C20.9175 10.7755 20.0238 9.86209 18.8632 9.87637C18.6536 9.87897 18.3753 9.92041 18.2449 9.96845ZM22.9525 10.02C22.8424 10.059 22.6697 10.1487 22.5688 10.2194L22.3853 10.3478V10.1765C22.3853 10.01 22.3729 10.0051 21.9507 10.0051H21.5161L21.5337 12.1236L21.5513 14.242H21.9517H22.352L22.3859 12.8408C22.4104 11.8305 22.4458 11.3888 22.5129 11.2572C22.6274 11.0327 23.0771 10.8058 23.4073 10.8058H23.6531V10.3721V9.93842L23.4029 9.9437C23.2653 9.94656 23.0626 9.98093 22.9525 10.02ZM18.4663 10.7344C18.0473 10.8395 17.5813 11.3326 17.5813 11.6711C17.5813 11.7159 18.0117 11.7399 18.8157 11.7399C19.5535 11.7399 20.0501 11.7144 20.0501 11.6763C20.0501 11.5787 19.8949 11.2538 19.7832 11.1173C19.5361 10.8157 18.8907 10.6281 18.4663 10.7344ZM13.3435 10.8798C12.9866 11.0687 12.8519 11.1955 12.7131 11.473C12.5423 11.815 12.503 12.1096 12.5816 12.4603C12.7051 13.0115 13.0606 13.3625 13.6501 13.5155C14.6898 13.7852 15.6537 12.7396 15.314 11.7104C15.0505 10.9119 14.0665 10.4972 13.3435 10.8798ZM6.30526 18.579V21.4814H8.34029H10.3753V21.0156V20.5498L8.89075 20.5319L7.40618 20.5139V19.8133V19.1127L8.86026 19.0947L10.3144 19.0768L10.2948 18.5943L10.2752 18.1119L8.82083 18.0939L7.36641 18.0759L7.37762 17.3766L7.38877 16.6774H8.88208H10.3753V16.177V15.6765H8.34029H6.30526V18.579ZM16.9141 16.6075V17.2048L16.4971 17.2246L16.0801 17.2445L16.0604 17.6916L16.0408 18.1387L16.4607 18.1587L16.8808 18.1786L16.9141 19.4797C16.9617 21.3353 17.0275 21.4235 18.3987 21.4692L19.1827 21.4955V21.0287V20.5619L18.675 20.5362C17.9238 20.4983 17.9066 20.4671 17.93 19.1867L17.9483 18.1786L18.5655 18.1594L19.1827 18.1403V17.6757V17.2112H18.5488H17.915V16.6107V16.0102H17.4145H16.9141V16.6075ZM20.8042 17.1208C20.4718 17.1996 20.3258 17.2803 20.0599 17.5319C19.1137 18.4274 19.6323 19.4464 21.1843 19.7411C22.0824 19.9116 22.2885 19.9665 22.402 20.0657C22.565 20.208 22.5477 20.3634 22.3479 20.5511C22.0102 20.8684 20.9505 20.7113 20.6839 20.3043C20.5897 20.1606 20.5343 20.1469 20.0441 20.1469C19.5182 20.1469 19.5082 20.15 19.5536 20.2971C19.7042 20.7851 19.9891 21.0951 20.5129 21.3405C21.045 21.5897 22.0439 21.6244 22.6077 21.4133C23.5043 21.0775 23.8998 20.319 23.511 19.6811C23.2532 19.2583 22.8617 19.062 21.985 18.916C21.0666 18.7632 20.7173 18.6028 20.7173 18.3341C20.7173 18.1438 21.1013 17.9456 21.4706 17.9454C21.8559 17.945 22.2936 18.1507 22.3988 18.3815C22.4689 18.5355 22.5056 18.5456 22.9966 18.5456C23.4785 18.5456 23.5196 18.5349 23.5196 18.4095C23.5196 18.2209 23.3017 17.8121 23.0865 17.597C22.8499 17.3602 22.4312 17.1623 21.9903 17.0787C21.5336 16.9921 21.3143 16.9999 20.8042 17.1208ZM12.6028 17.1683C11.9504 17.3335 11.408 17.7509 11.0451 18.3669C10.9008 18.6119 10.8805 18.7266 10.8783 19.3129C10.876 19.9114 10.8942 20.0152 11.0556 20.321C11.6164 21.3841 12.9647 21.8561 13.9889 21.3479C14.4723 21.1081 14.4908 21.1062 14.484 21.2979C14.479 21.4404 14.5068 21.449 15.0292 21.4674L15.5797 21.4868V19.3463V17.2058L15.0292 17.2252C14.5319 17.2427 14.4769 17.2578 14.4591 17.3818C14.4399 17.5157 14.4302 17.5145 14.0588 17.3325C13.6027 17.1091 13.0725 17.0493 12.6028 17.1683ZM13.0109 18.0431C12.9742 18.0562 12.8621 18.085 12.7619 18.107C12.5173 18.161 12.1114 18.5263 12.0001 18.7926C11.8696 19.1047 11.8862 19.671 12.0337 19.9462C12.1018 20.0731 12.2697 20.2678 12.4069 20.3788C12.6364 20.5646 12.6974 20.5806 13.1724 20.5806C13.6352 20.5806 13.7138 20.5613 13.9341 20.3933C14.3832 20.0507 14.5761 19.3674 14.3744 18.8335C14.2891 18.6076 14.0073 18.299 13.7782 18.1806C13.6011 18.089 13.1226 18.0033 13.0109 18.0431Z" fill="white"/>
</svg>
