<svg width="17" height="17" viewBox="0 0 17 17" fill="none" xmlns="http://www.w3.org/2000/svg">
<path fill-rule="evenodd" clip-rule="evenodd" d="M1.72806 0.020733C1.33364 0.086732 0.941719 0.282448 0.641011 0.563618C-0.177491 1.32889 -0.21733 2.60494 0.551371 3.43319C1.45345 4.40509 2.98036 4.28363 3.71669 3.18139C4.27208 2.35003 4.12285 1.15271 3.3844 0.51583C2.9438 0.135848 2.26058 -0.068372 1.72806 0.020733ZM11.9924 5.44626C10.967 5.63223 10.0709 6.19399 9.57423 6.96204C9.4872 7.09661 9.40433 7.19501 9.39001 7.18074C9.37573 7.16647 9.36403 6.81254 9.36403 6.39423V5.63372H7.68329H6.00254V11.3169V17H7.76628H9.53003L9.53036 13.9614C9.53069 10.9321 9.54904 10.4378 9.68009 9.92719C9.88738 9.11948 10.3999 8.62471 11.1656 8.49301C12.1007 8.33222 12.8532 8.65612 13.1733 9.35717C13.4461 9.95473 13.4431 9.91002 13.4613 13.6088L13.4778 16.9585H15.2389H17L16.9994 13.671C16.999 11.8629 16.98 10.1078 16.957 9.77084C16.8458 8.13675 16.4971 7.12938 15.7965 6.41878C15.2771 5.89187 14.6136 5.57913 13.7341 5.44659C13.2428 5.37259 12.3995 5.37242 11.9924 5.44626ZM0.275563 11.3164V17H2.03947H3.80334L3.79284 11.3272L3.7823 5.65446L2.02893 5.64364L0.275563 5.63281V11.3164Z" fill="white"/>
</svg>
