<svg width="28" height="27" viewBox="0 0 28 27" fill="none" xmlns="http://www.w3.org/2000/svg">
<path fill-rule="evenodd" clip-rule="evenodd" d="M12.36 0.670724C10.3007 1.93314 8.39698 3.53683 6.61916 5.50674C5.70405 6.52077 4.39669 8.25325 4.04765 8.91436C3.81333 9.35809 3.81384 9.36543 4.08455 9.56334C4.23514 9.6736 4.76804 9.82979 5.26882 9.91068C5.7696 9.99145 6.23464 10.119 6.30212 10.1939C6.36974 10.2689 6.49103 11.2743 6.57167 12.4282C6.76019 15.1242 7.08329 18.0337 7.23374 18.3913C7.35078 18.6691 7.36097 18.6705 9.06279 18.6381L10.7743 18.6056L10.7306 16.9738L10.6869 15.3421L10.2241 14.9082C9.86203 14.5688 9.74009 14.3404 9.66422 13.8592C9.5468 13.1137 9.51983 7.75813 9.63157 7.38107C9.68783 7.19108 9.79054 7.12301 9.98254 7.14796C10.2493 7.18257 10.2531 7.22092 10.2117 9.46194C10.1754 11.4274 10.1978 11.7616 10.3735 11.8934C10.8659 12.2625 10.9315 12.0237 10.992 9.63829C11.0506 7.32815 11.1192 7.01823 11.5398 7.16404C11.714 7.22442 11.742 7.55544 11.742 9.55646C11.742 11.5936 11.7678 11.8877 11.952 11.9515C12.4468 12.123 12.5161 11.8476 12.5181 9.70402C12.52 7.35986 12.5636 7.09714 12.9415 7.14796C13.1988 7.18246 13.2044 7.25554 13.2151 10.7499L13.2259 14.3165L12.7357 14.8849C12.3222 15.3644 12.2559 15.5176 12.312 15.864C12.3486 16.0898 12.4165 16.7466 12.4628 17.3235C12.509 17.9005 12.6051 18.4381 12.6764 18.5182C12.8637 18.7289 16.1721 18.7231 16.3663 18.5118C16.4432 18.4281 16.546 17.7229 16.5947 16.9448L16.6833 15.5299L16.374 15.4719C16.2039 15.4398 15.8525 15.3831 15.5933 15.3456C15.3339 15.3081 15.0927 15.2086 15.0569 15.1244C14.8714 14.6879 15.46 11.5243 16.024 9.92641C16.8795 7.50252 18.0706 5.99044 18.3957 6.91566C18.5273 7.29027 18.4803 13.3788 18.3279 15.6917C18.256 16.7815 18.1966 17.898 18.1955 18.173L18.1937 18.6726L19.3859 18.6392C20.5148 18.6074 20.586 18.5901 20.7288 18.3142C20.9131 17.958 21.0967 16.4006 21.3602 12.958C21.4705 11.5186 21.618 10.2785 21.6881 10.2023C21.758 10.1261 22.2054 9.99868 22.682 9.91919C23.8114 9.73083 24.0002 9.63421 24.0002 9.24456C24.0002 8.90841 22.8743 7.2412 21.8581 6.07296C21.4518 5.60581 21.2905 5.31256 21.2905 5.04133C21.2905 4.404 20.8814 2.24679 20.7234 2.05168C20.567 1.85866 18.8333 1.57904 18.5028 1.69362C18.4035 1.728 18.3228 1.91461 18.3228 2.10937C18.3228 2.30367 18.2884 2.46265 18.2465 2.46265C18.2047 2.46265 17.8707 2.23164 17.5045 1.94934C17.1385 1.66693 16.3199 1.1162 15.6857 0.725506C14.1347 -0.230018 13.837 -0.234913 12.36 0.670724ZM18.4518 23.2678V25.6706L19.0002 25.6347L19.5486 25.599V23.2678V20.9367L19.0002 20.9009L18.4518 20.865V23.2678ZM0.0916137 21.3007C0.0412907 21.3463 0 22.3451 0 23.5204V25.6572H0.580651H1.1613V24.4917C1.1613 23.8506 1.20491 23.3266 1.25808 23.3272C1.31124 23.3278 1.58698 23.8546 1.8706 24.498L2.38634 25.6676L2.96493 25.6333L3.54352 25.599L4.0621 24.4635C4.34739 23.839 4.62417 23.3276 4.67746 23.3271C4.73075 23.3266 4.77424 23.8537 4.77424 24.4983V25.6706L5.32263 25.6347L5.87102 25.599V23.4427V21.2864H5.0985H4.32598L3.68984 22.7725C3.34003 23.5898 3.01203 24.2586 2.96106 24.2586C2.91022 24.2586 2.57951 23.5898 2.22647 22.7725L1.58427 21.2864L0.883879 21.2521C0.498585 21.2334 0.142066 21.2552 0.0916137 21.3007ZM7.27981 22.3901C6.87297 22.5388 6.34303 23.168 6.25077 23.6118C5.94238 25.0965 7.5131 26.2042 9.08525 25.6108C9.6508 25.3974 9.75273 25.2261 9.47764 24.9516C9.28757 24.7619 9.14421 24.7383 8.55956 24.8003C7.98704 24.8612 7.81968 24.8356 7.59633 24.6537C7.3291 24.4358 7.34097 24.4327 8.66305 24.3751L10.0001 24.3168L9.97583 23.8224C9.94487 23.1938 9.60938 22.6795 9.08305 22.4538C8.63918 22.2636 7.7153 22.2308 7.27981 22.3901ZM10.4087 22.3549C10.3614 22.3975 10.3227 23.158 10.3227 24.0449V25.6572H10.8388H11.3549V24.6925C11.3549 23.5746 11.5424 23.2096 12.1165 23.2096C12.7384 23.2096 12.9033 23.5106 12.9033 24.6466V25.6572H13.4195H13.9356V24.4276C13.9356 23.0657 13.7884 22.6464 13.2295 22.4164C12.7926 22.2366 11.8382 22.2369 11.6388 22.417C11.5184 22.5257 11.4495 22.5257 11.3291 22.417C11.1636 22.2674 10.5513 22.2261 10.4087 22.3549ZM14.4148 22.3493C14.3641 22.3951 14.323 22.9614 14.3232 23.6078C14.3236 24.5768 14.3689 24.8501 14.5813 25.1648C14.8995 25.636 15.3889 25.8177 16.0647 25.7155C16.3485 25.6725 16.8873 25.6449 17.2618 25.6541L17.9429 25.671L17.907 24.0032L17.8711 22.3354H17.4195H16.9679L16.9351 23.1513C16.8946 24.1575 16.8301 24.4247 16.5714 24.6584C16.3204 24.8851 15.9971 24.8919 15.6724 24.6775C15.4681 24.5426 15.4124 24.321 15.3573 23.4245L15.2905 22.3354L14.8987 22.3008C14.6832 22.2817 14.4656 22.3036 14.4148 22.3493ZM21.0281 22.3727C20.2611 22.6798 19.8712 23.2202 19.8712 23.9759C19.8712 25.8463 22.6428 26.4897 23.5809 24.8372C23.9295 24.2229 23.948 23.7563 23.6451 23.2119C23.3085 22.6065 22.6792 22.2754 21.8843 22.2853C21.5223 22.2898 21.137 22.3291 21.0281 22.3727ZM24.8215 22.5008C24.2961 22.7902 23.9331 23.6074 24.0594 24.2161C24.2558 25.1616 25.4893 25.7762 26.4017 25.3831C26.8331 25.1973 26.839 25.1984 26.839 25.4662C26.839 25.7507 26.5232 26.0787 26.1938 26.1363C26.0873 26.1549 25.7766 26.1301 25.5035 26.081C25.1161 26.0116 24.9525 26.0362 24.7615 26.1923C24.6267 26.3025 24.5164 26.4544 24.5164 26.5298C24.5164 27.0118 26.5395 27.1835 27.1844 26.7562C27.8645 26.3055 27.9999 25.8783 28 24.1807C28.0001 23.3365 27.965 22.5629 27.9219 22.4615C27.8321 22.2502 27.2206 22.2121 27.0076 22.4045C26.9057 22.4966 26.7938 22.4966 26.6032 22.4045C26.1885 22.204 25.2703 22.2537 24.8215 22.5008ZM7.55762 23.2761C7.21581 23.5849 7.32626 23.6758 8.04304 23.6758C8.84782 23.6758 8.98292 23.5987 8.69002 23.3064C8.42782 23.0446 7.83156 23.0288 7.55762 23.2761ZM25.4196 23.3261C25.2777 23.4543 25.1615 23.6904 25.1615 23.8506C25.1615 24.0109 25.2777 24.2469 25.4196 24.3751C25.5615 24.5033 25.8228 24.6082 26.0002 24.6082C26.1777 24.6082 26.439 24.5033 26.5809 24.3751C26.7228 24.2469 26.839 24.0109 26.839 23.8506C26.839 23.6904 26.7228 23.4543 26.5809 23.3261C26.439 23.1979 26.1777 23.093 26.0002 23.093C25.8228 23.093 25.5615 23.1979 25.4196 23.3261ZM21.2576 23.4135C20.8219 23.8538 20.97 24.5083 21.5552 24.7272C21.905 24.8581 21.9932 24.8482 22.2988 24.6431C22.751 24.3393 22.8263 23.7809 22.4594 23.4496C22.1344 23.156 21.5305 23.1379 21.2576 23.4135Z" fill="white"/>
</svg>
