<svg width="20" height="16" viewBox="0 0 20 16" fill="none" xmlns="http://www.w3.org/2000/svg">
<path fill-rule="evenodd" clip-rule="evenodd" d="M13.2224 0.0522475C12.8034 0.121498 12.5096 0.210188 12.1417 0.378561C11.0059 0.898345 10.209 1.85561 9.8652 3.11321C9.79154 3.38274 9.76395 4.41808 9.82081 4.78111L9.84989 4.96696L9.58535 4.94325C7.35853 4.74335 5.53874 4.11228 3.77877 2.92955C3.08568 2.46374 2.10901 1.60309 1.61972 1.02691C1.49696 0.88237 1.38151 0.769005 1.36318 0.774972C1.30435 0.794219 1.01611 1.46317 0.937225 1.76365C0.69407 2.6897 0.805797 3.74247 1.23548 4.57405C1.53424 5.15227 1.94752 5.63248 2.48772 6.02913L2.60568 6.11574H2.43941C2.0901 6.11574 1.37248 5.9265 0.983298 5.73172C0.897628 5.68888 0.813018 5.65381 0.795241 5.65381C0.777463 5.65381 0.776639 5.8211 0.793396 6.02555C0.924432 7.62197 2.02578 8.99605 3.58412 9.50732C3.86824 9.60056 3.98915 9.65595 3.94014 9.67042C3.67795 9.74776 3.26459 9.7809 2.77675 9.76369L2.23134 9.74445L2.25645 9.84253C2.29938 10.0104 2.5894 10.5506 2.76933 10.7979C3.46297 11.7514 4.59532 12.4063 5.70051 12.4932C5.8678 12.5064 6.00465 12.5303 6.00465 12.5465C6.00465 12.6046 5.10086 13.1646 4.66788 13.3747C3.35097 14.014 2.201 14.2639 0.726524 14.2313L0 14.2153L0.206188 14.3423C0.506483 14.5272 1.41624 14.9778 1.82516 15.1441C3.88802 15.9831 6.29784 16.2148 8.61496 15.797C11.618 15.2555 14.2264 13.5584 15.9365 11.0335C17.2497 9.09463 17.9495 6.93158 17.9947 4.67229L18.0086 3.97944L18.2955 3.75479C18.6331 3.49045 19.0719 3.07853 19.3892 2.72827C19.6352 2.4567 20.0211 1.95173 19.9991 1.93017C19.9916 1.92282 19.8552 1.96751 19.696 2.02949C19.2976 2.18458 18.6095 2.3727 18.1349 2.45631C17.9169 2.49473 17.7386 2.52202 17.7386 2.51702C17.7386 2.51201 17.8578 2.4207 18.0035 2.31411C18.3661 2.04885 18.7884 1.61187 19.0168 1.2655C19.1929 0.998467 19.4637 0.451276 19.4649 0.360161C19.4651 0.338604 19.2263 0.436956 18.9341 0.578768C18.4072 0.83456 17.7067 1.08319 17.1598 1.20857L16.8752 1.27378L16.6373 1.05771C15.7309 0.234593 14.4325 -0.147729 13.2224 0.0522475Z" fill="white"/>
</svg>
