<svg width="20" height="20" viewBox="0 0 20 20" fill="none" xmlns="http://www.w3.org/2000/svg">
<path fill-rule="evenodd" clip-rule="evenodd" d="M9.06342 0.0436103C5.67833 0.366847 2.68332 2.38996 1.11856 5.41041C-0.05855 7.68256 -0.314689 10.2597 0.388454 12.7563C0.639599 13.6482 1.09144 14.6408 1.60567 15.4305L1.89677 15.8775L1.27622 17.7129C0.934909 18.7224 0.660667 19.5534 0.666754 19.5595C0.672801 19.5656 1.52502 19.2989 2.56054 18.9668C3.59606 18.6347 4.45874 18.3631 4.47758 18.3631C4.49647 18.3631 4.65815 18.4541 4.83688 18.5653C5.804 19.1674 7.15836 19.6671 8.36114 19.8658C11.1173 20.3211 13.8832 19.6092 16.1448 17.8624C16.5715 17.5328 17.5006 16.6023 17.8297 16.1751C19.2247 14.3639 19.9294 12.3263 19.9965 9.91029C20.0054 9.5928 19.9969 9.37849 19.9762 9.39135C19.9567 9.40338 19.9299 9.26014 19.9165 9.0726C19.7901 7.30021 19.0275 5.38372 17.8297 3.82853C17.5006 3.40124 16.5715 2.4708 16.1448 2.14123C14.0877 0.552397 11.5641 -0.195154 9.06342 0.0436103ZM5.75871 4.64125C5.61489 4.68016 5.43054 4.75905 5.34904 4.81652C5.09614 4.99488 4.72128 5.46694 4.53579 5.8407C4.28227 6.35148 4.20061 6.70871 4.1964 7.32541C4.19288 7.8451 4.22035 8.00982 4.40825 8.59523C4.80777 9.84008 6.33911 11.8907 7.83443 13.1834C8.96584 14.1614 9.89505 14.6741 11.5799 15.2499C12.7983 15.6663 13.6099 15.6929 14.4086 15.3426C14.7187 15.2066 15.1244 14.9572 15.3314 14.7752C15.7164 14.4367 15.9397 13.8793 15.9774 13.1628L15.9992 12.7488L15.8672 12.6487C15.7316 12.5459 13.6557 11.5324 13.4176 11.4527C13.3447 11.4283 13.2171 11.4084 13.1342 11.4084C12.9349 11.4084 12.8125 11.5242 12.3298 12.169C11.8708 12.7822 11.7621 12.867 11.4629 12.8454C10.8815 12.8034 9.57796 12.0269 8.714 11.2079C8.18842 10.7097 7.32886 9.57815 7.2044 9.22056C7.14236 9.04232 7.21298 8.91276 7.62912 8.44144C8.03442 7.98239 8.2082 7.68295 8.17261 7.50479C8.14499 7.3664 7.19648 5.07865 7.08017 4.86986C6.96086 4.65563 6.82618 4.59979 6.39084 4.58397C6.12034 4.57412 5.94953 4.58964 5.75871 4.64125ZM0.00765977 9.94319C0.00769879 10.244 0.0138243 10.362 0.0212373 10.2052C0.0286893 10.0485 0.0286113 9.80234 0.0211592 9.6582C0.0136682 9.51411 0.00758174 9.64234 0.00765977 9.94319Z" fill="#F77500"/>
</svg>
