<svg width="44" height="44" viewBox="0 0 44 44" fill="none" xmlns="http://www.w3.org/2000/svg">
<path opacity="0.8" d="M29.0778 9.78717L29.0779 9.78716C29.3048 9.676 29.5295 9.57453 29.7095 9.5004C29.7993 9.46343 29.8801 9.43241 29.9455 9.41026C29.9781 9.39924 30.0091 9.38964 30.0369 9.38258C30.0602 9.37665 30.0968 9.36825 30.1341 9.36825C30.3147 9.36825 30.5095 9.44729 30.6668 9.5466C30.8251 9.64651 30.9804 9.7889 31.0638 9.95138L30.8855 10.0428L31.0638 9.95139C31.1153 10.0518 31.154 10.2098 31.1866 10.3881C31.2205 10.5741 31.2517 10.8069 31.2799 11.0731C31.3364 11.606 31.382 12.2833 31.4129 13.0094C31.4747 14.4603 31.4785 16.1206 31.3907 17.2316C30.9801 22.4281 29.5895 26.0243 26.866 28.8461C25.1027 30.6732 23.316 31.7564 21.0692 32.3537L21.0692 32.3537C20.3802 32.5368 20.0542 32.5703 19.002 32.5761C18.0788 32.5812 17.6234 32.5491 17.2249 32.4364C17.0963 32.4 16.9759 32.374 16.8869 32.361C16.8803 32.3601 16.874 32.3592 16.868 32.3584C16.8567 32.3996 16.8442 32.4518 16.8309 32.5143C16.7964 32.676 16.7593 32.8927 16.7245 33.1332C16.6546 33.6151 16.5958 34.1782 16.5843 34.565L16.384 34.559L16.5843 34.565C16.5776 34.7884 16.5604 35.0129 16.5379 35.1958C16.5266 35.287 16.5138 35.3703 16.4996 35.439C16.487 35.5004 16.4693 35.5724 16.4409 35.6255M29.0778 9.78717L14.8535 35.6705L14.6992 35.7983C14.8038 35.9247 14.9618 35.9918 15.1118 36.0258C15.2662 36.0609 15.4387 36.0671 15.6041 36.0508C15.7695 36.0345 15.9373 35.9946 16.0817 35.93C16.2218 35.8672 16.3635 35.7704 16.4409 35.6255M29.0778 9.78717C27.9083 10.3604 25.9896 11.1209 24.7252 11.5123C21.5942 12.4816 19.7013 13.2264 18.2056 14.0845C15.5308 15.6191 13.5078 17.8007 12.5309 20.2271C10.9833 24.0709 11.7175 28.4755 14.3609 30.9169L14.8967 31.4118L29.0778 9.78717ZM16.4409 35.6255L16.2641 35.5311L16.4409 35.6255C16.4409 35.6255 16.4409 35.6255 16.4409 35.6255ZM14.7362 2.35022L14.8053 2.53828L14.7362 2.35022C13.6825 2.7375 11.6409 3.74073 10.7156 4.32615L10.8227 4.49547L10.7156 4.32615C9.48845 5.10254 8.4145 5.96041 7.26447 7.08165C5.46552 8.83555 4.23328 10.4976 3.14199 12.6436C0.00174576 18.8189 0.0197465 25.9129 3.19116 32.0761C4.28758 34.2067 5.48726 35.8176 7.26453 37.5469C9.02009 39.2551 10.6099 40.3749 12.7497 41.4096C14.2479 42.1341 15.2621 42.5059 16.8134 42.8992C18.4319 43.3097 19.6488 43.482 21.3321 43.5394C26.1708 43.7043 30.8343 42.2114 34.8281 39.2221C35.3437 38.8361 36.1632 38.0784 36.9433 37.2964C37.7235 36.5145 38.4794 35.6931 38.8645 35.1763C41.1643 32.0892 42.655 28.3966 43.0314 24.843C43.0793 24.3912 43.1533 23.8737 43.1942 23.6934L42.9989 23.649L43.1943 23.6934C43.2238 23.5633 43.2433 23.3334 43.2561 23.0753C43.2693 22.8112 43.2762 22.5004 43.2768 22.1984C43.2774 21.8966 43.2717 21.601 43.2595 21.3674C43.2534 21.2509 43.2456 21.1472 43.2356 21.0648C43.2307 21.0237 43.2249 20.9852 43.2179 20.9517C43.2118 20.9228 43.2017 20.8808 43.1822 20.8432L43.1822 20.8432C43.184 20.8467 43.1838 20.8461 43.182 20.8396C43.1794 20.8301 43.1731 20.8077 43.1644 20.7668C43.1519 20.7087 43.1379 20.6308 43.1233 20.5378C43.0941 20.3522 43.0635 20.1138 43.0389 19.8682C42.6599 16.0858 40.9826 12.0761 38.4809 8.96378L38.3248 9.0893L38.4809 8.96377C35.4453 5.18721 31.0512 2.49355 26.3371 1.5201C24.3518 1.1101 21.9974 0.971337 20.0894 1.15284C18.3967 1.31382 16.2504 1.79369 14.7362 2.35022ZM16.8956 32.2754C16.8955 32.2757 16.8951 32.2766 16.8944 32.2778C16.8954 32.2756 16.8958 32.2749 16.8956 32.2754ZM20.0875 3.94425L20.0673 3.74489L20.0875 3.94425C23.4664 3.60321 26.9793 4.23238 30.0273 5.72449L30.1154 5.54454L30.0273 5.7245C32.0326 6.70606 33.3485 7.65294 34.9848 9.29323L35.1221 9.15629L34.9848 9.29323C36.4265 10.7382 37.2786 11.8673 38.1638 13.5026C40.5939 17.9916 41.0736 23.153 39.5113 27.992C36.6227 36.939 27.5737 42.2487 18.3554 40.406C15.216 39.7783 12.1215 38.2303 9.75296 36.1027C3.74383 30.7051 1.90871 22.0983 5.19882 14.7486C7.86233 8.79873 13.6594 4.5929 20.0875 3.94425ZM23.9443 13.9984C26.302 13.2267 27.5945 12.7659 28.5769 12.3454C28.8071 12.2469 29.0216 12.1567 29.1816 12.0909C29.2068 12.0805 29.2305 12.0708 29.2527 12.0618C29.2644 12.1595 29.2754 12.2891 29.2853 12.446C29.31 12.8388 29.3269 13.3844 29.3343 13.9843C29.3493 15.1857 29.3265 16.5897 29.2571 17.4044C28.8657 22.0012 27.5713 25.1741 25.1317 27.5989C22.9418 29.7754 20.1064 30.8516 17.9439 30.3915C17.7794 30.3565 17.6263 30.3205 17.5128 30.2908C17.502 30.288 17.4917 30.2853 17.4818 30.2826C17.487 30.2662 17.4928 30.2483 17.4994 30.229C17.5466 30.0892 17.6228 29.8927 17.7209 29.6576C17.9166 29.1885 18.1947 28.5771 18.4897 27.9806L18.3101 27.8917L18.4897 27.9805C19.784 25.3633 21.3503 23.1794 24.1152 20.1466C25.1873 18.9706 25.9918 18.0187 26.5295 17.2874C26.7981 16.922 27.0033 16.6075 27.1422 16.3447C27.2774 16.0888 27.3638 15.8568 27.3638 15.6643C27.3638 15.2621 27.0412 14.9598 26.6419 14.9598C26.5403 14.9598 26.4455 14.9926 26.3409 15.0556C26.24 15.1162 26.1187 15.2116 25.9601 15.3519C25.6416 15.6334 25.1387 16.1265 24.2915 16.9711C20.862 20.3899 18.9031 22.8414 17.1817 25.8775C16.6504 26.8148 15.8912 28.4036 15.6476 29.0927C15.6327 29.1348 15.616 29.1734 15.5995 29.2062C15.5884 29.1953 15.5764 29.1831 15.5636 29.1696C15.4764 29.0776 15.3677 28.9433 15.2505 28.782C15.0162 28.4598 14.761 28.0486 14.5897 27.6948C13.5412 25.5284 13.5959 22.8536 14.7534 20.4555C15.8599 18.1633 18.2845 16.1307 21.4728 14.8632C21.9076 14.6904 23.0201 14.3009 23.9443 13.9984ZM29.4387 11.9886C29.4414 11.9878 29.4409 11.988 29.4383 11.9888L29.4387 11.9886Z" fill="#00A601" stroke="#00A601" stroke-width="0.400728"/>
</svg>
