<svg width="139" height="99" viewBox="0 0 139 99" fill="none" xmlns="http://www.w3.org/2000/svg">
<path fill-rule="evenodd" clip-rule="evenodd" d="M65.3513 0.499068C62.4569 1.86098 59.6054 4.89806 59.6054 6.61891C59.6054 7.13572 59.3858 7.45499 58.8304 7.74472C57.7484 8.3094 57.2705 9.56817 57.6562 10.8368C57.821 11.3788 57.8928 11.9248 57.8159 12.0504C57.5852 12.4274 54.2853 12.3213 53.9608 11.9265C53.8015 11.7325 53.634 10.7804 53.5887 9.81029C53.5125 8.17233 53.4461 8.00764 52.656 7.49548C52.0049 7.07334 51.704 6.58006 51.3733 5.39297C51.0567 4.25595 50.7198 3.68279 50.1107 3.24505C49.068 2.4957 47.4901 2.26972 46.2308 2.68912C45.3528 2.98159 45.1652 2.94602 44.2388 2.31048C43.0166 1.47221 42.2457 1.4402 40.6695 2.1622C39.2128 2.8292 39.1626 2.8292 37.7911 2.15919C36.5393 1.54745 35.4654 1.69847 34.2597 2.65575C33.7236 3.08145 33.3866 3.14793 32.6347 2.97694C30.2011 2.42292 27.8185 3.95555 27.4447 6.31551C27.3016 7.21862 27.1544 7.40739 26.4895 7.54145C26.0572 7.62872 25.3421 8.04101 24.9 8.45768C23.8152 9.48062 23.8142 10.7142 24.8973 12.0403L25.698 13.0208L23.4377 13.1962C17.9642 13.6208 15.0774 15.5367 13.966 19.4821C12.5969 24.3426 8.81834 40.9192 8.70992 42.5413L8.57954 44.4873L6.52816 44.6624C2.43381 45.0118 1.11727 46.3411 0.391373 50.8589C-0.310671 55.2283 -0.0959919 57.1935 1.2612 58.8216C2.27957 60.0429 3.91054 60.6864 6.81955 61.0141C8.1968 61.1692 9.38486 61.358 9.4594 61.4332C9.53394 61.5085 9.59709 68.5465 9.59981 77.0733L9.60495 92.5764L10.2319 93.8589C10.5764 94.5645 11.1622 95.3423 11.5333 95.5877C13.3174 96.7677 14.043 96.8407 25.1808 96.9628C31.0696 97.0273 38.5712 97.2071 41.851 97.3619C64.5436 98.4338 87.6763 98.9914 109.806 98.9999C119.572 99.0037 124.834 98.9044 125.798 98.6981C129.161 97.9778 130.882 96.4022 131.487 93.4882C131.809 91.9419 131.786 91.2774 130.787 73.1518C130.588 69.5404 130.439 65.4467 130.456 64.055L130.487 61.5243L131.843 61.5227C135.673 61.5186 137.846 59.6125 138.374 55.7938C138.578 54.3143 138.589 54.2995 138.769 55.2319C139.096 56.9221 139.068 53.6642 138.734 51.2162C138.138 46.8445 136.869 45.2077 133.469 44.4258L132.114 44.1139L131.771 42.2177C130.206 33.5658 126.82 21.5252 124.543 16.5194C123.65 14.5559 122.442 13.0936 121.175 12.4408C120.341 12.0113 117.912 11.4584 116.853 11.4573C116.157 11.4565 116.121 11.39 116.12 10.1099C116.119 9.09213 115.97 8.60351 115.51 8.10941C115.175 7.74992 114.902 7.19098 114.902 6.86733C114.902 5.95738 114.111 3.82013 113.338 2.64179C112.954 2.05605 112.104 1.26018 111.449 0.872512C110.438 0.274727 110.039 0.191011 108.809 0.319049C108.012 0.402219 107.058 0.670058 106.688 0.914644C106.049 1.33733 105.964 1.32393 104.97 0.638324C104.084 0.0274061 103.705 -0.0647944 102.492 0.0339702C101.675 0.100725 100.744 0.37787 100.324 0.680182C99.7005 1.12777 99.3931 1.17099 98.3338 0.959513C97.3076 0.75487 96.8912 0.803296 96.0298 1.22763C94.7542 1.85633 93.7589 3.64941 93.7589 5.31883C93.7589 6.38609 93.6968 6.47528 92.669 6.88265C91.2269 7.45445 90.5897 8.84453 90.98 10.5662L91.2443 11.7317H89.2487C87.5297 11.7317 87.2532 11.6655 87.2518 11.2529C87.2461 9.4363 85.887 7.24187 84.5892 6.95433C83.9766 6.81836 83.7774 6.5631 83.5169 5.58011C82.8899 3.21414 80.4995 1.48452 77.919 1.53021C76.5775 1.55401 76.1557 1.4402 75.3854 0.847343C74.6313 0.266794 74.2169 0.149971 73.1321 0.212348C70.6774 0.353519 68.6937 0.326982 67.6016 0.138208C66.7901 -0.00241557 66.2241 0.088415 65.3513 0.499068ZM102.197 2.37258C101.843 2.42976 101.285 2.79227 100.956 3.17775L100.358 3.87922L99.1267 3.40428C98.449 3.14328 97.6109 2.97092 97.2637 3.0218C96.6072 3.11729 95.8254 4.21683 95.5181 5.47642L95.3421 6.19732L101.801 6.36612C105.354 6.45914 109.147 6.59484 110.23 6.66788L112.2 6.80085L112.026 6.05177C111.733 4.79081 111.065 3.52575 110.469 3.10415C109.756 2.60021 108.466 2.60431 107.583 3.11373C106.633 3.66145 105.067 3.61849 104.299 3.02345C103.481 2.38982 103.003 2.24208 102.197 2.37258ZM64.4774 3.69182C62.023 5.22061 61.2318 5.924 61.2318 6.57678C61.2318 7.04817 61.6963 7.06349 71.0577 6.90125C76.462 6.80769 80.9367 6.6843 81.0017 6.62712C81.323 6.34423 80.4965 4.9711 79.6603 4.39849C78.8644 3.85378 78.5077 3.77882 77.4032 3.92409C76.2384 4.0773 75.9416 3.99987 74.7573 3.23274C73.4324 2.37477 73.4121 2.37122 71.7033 2.69651C70.4405 2.93699 69.7024 2.94547 68.9277 2.72852C67.1921 2.24208 66.5982 2.37067 64.4774 3.69182ZM35.1965 4.76537C34.3405 5.40282 34.1163 5.44441 32.4387 5.27752C30.6351 5.09832 30.6028 5.1068 29.7943 5.98064C29.344 6.46707 28.9757 6.97512 28.9757 7.10973C28.9757 7.37839 38.2689 7.37976 44.9863 7.11219L49.2057 6.94393L48.9774 6.05834C48.6915 4.94785 47.9417 4.72542 46.3709 5.28518C45.3761 5.63975 45.0682 5.64796 44.338 5.3399C43.8647 5.14018 43.3098 4.77303 43.1055 4.52407C42.6124 3.92409 41.9212 3.95254 40.841 4.61736C39.7205 5.30707 38.9873 5.30707 37.6496 4.61845C36.3141 3.93093 36.3173 3.93066 35.1965 4.76537ZM94.5249 8.64673C93.316 8.77559 93.0723 9.05793 92.8386 10.6026L92.6576 11.799L97.342 11.6132C99.9182 11.5112 104.679 11.4075 107.922 11.3826L113.817 11.3377V10.3088C113.817 9.46093 113.71 9.25792 113.207 9.15588C112.419 8.99555 98.3409 8.42786 96.7405 8.49188C96.0697 8.51869 95.0727 8.58846 94.5249 8.64673ZM49.1696 9.44232C48.8714 9.49649 43.724 9.572 37.7306 9.6103C29.5747 9.66228 26.7503 9.76406 26.5023 10.0147C26.241 10.2787 26.367 10.6453 27.0989 11.7467L28.027 13.1439L30.331 12.9935C31.5982 12.9106 36.9386 12.6922 42.1985 12.5079L51.762 12.1724L51.5801 10.9263C51.3435 9.30389 51.022 9.10608 49.1696 9.44232ZM62.0552 9.47187C59.9898 9.59006 59.6054 9.84258 59.6054 11.0811V12.0053H72.0581C79.2493 12.0053 84.5754 11.8999 84.6635 11.7563C84.7472 11.6192 84.6624 11.0346 84.4748 10.4568L84.1341 9.40621L73.9705 9.38897C68.3804 9.3794 63.0186 9.4166 62.0552 9.47187ZM94.4365 14.4826C89.815 14.5849 80.5447 14.6922 73.836 14.7209C56.1114 14.7969 25.1676 15.6319 21.8002 16.1249C18.2233 16.6488 16.9078 17.9798 16.0901 21.9031C15.8637 22.99 14.5231 28.3794 13.1111 33.8796C11.6989 39.38 10.5436 43.9782 10.5436 44.098C10.5436 44.2178 11.2438 44.2789 12.0995 44.2337L13.6554 44.1516L13.8495 42.7837C13.9563 42.0313 14.6093 39.446 15.3007 37.0384C15.9922 34.6308 17.035 30.8143 17.618 28.5572C19.2932 22.0738 20.9781 19.2613 23.751 18.3199C24.3861 18.1043 27.4995 17.8814 31.9573 17.732C35.908 17.5998 41.6409 17.364 44.6971 17.2081C59.1717 16.4702 64.8035 16.3712 86.1692 16.48C109.152 16.5974 115.367 16.8097 117.07 17.5358C119.636 18.6304 121.272 21.8456 123.094 29.3777C123.822 32.3872 124.85 36.204 125.38 37.8592C125.909 39.5144 126.407 41.5766 126.487 42.4417L126.632 44.0148H127.827H129.021L128.849 42.9889C127.469 34.7827 123.992 21.8888 122.079 17.8874C120.935 15.4938 119.973 14.7835 117.424 14.452C115.39 14.1871 107.299 14.1981 94.4365 14.4826ZM58.1146 19.1557C55.8783 19.2515 51.4262 19.4736 48.2209 19.649C45.0156 19.8246 38.4899 20.061 33.7192 20.1746C24.2346 20.4003 24.0627 20.4304 22.6592 22.1137C21.7628 23.1892 21.0868 25.0531 19.748 30.1432C19.146 32.4307 17.8823 36.4909 16.9396 39.1655C15.9968 41.8404 15.3005 44.0564 15.3918 44.0901C15.4834 44.124 17.8338 44.1158 20.6151 44.0717L25.672 43.9919L25.0402 42.8406C24.3872 41.6508 23.5545 38.7831 23.5545 37.7243C23.5545 36.5189 24.4211 35.2092 25.5587 34.6951C26.6332 34.2095 26.6565 34.1693 26.7004 32.7245C26.7495 31.1155 27.2878 29.8067 28.3967 28.6013C29.424 27.4845 30.3936 27.0525 31.8738 27.0525C32.918 27.0525 33.4457 26.8624 34.5674 26.0826C36.6214 24.6551 37.4365 24.6088 39.6508 25.7946C40.6621 26.336 41.7282 26.7789 42.0199 26.7789C42.7547 26.7789 44.4448 27.6905 45.1408 28.4623C45.9313 29.3383 46.7805 31.1038 47.0128 32.3535C47.1209 32.936 47.3977 33.4533 47.6452 33.5365C50.5268 34.505 51.5991 35.9506 51.562 38.8167C51.5476 39.9228 51.3218 41.1638 50.9643 42.0997C50.6482 42.9273 50.3896 43.6969 50.3896 43.8097C50.3894 43.9224 52.5744 44.0148 55.2451 44.0148H60.1006L59.8989 43.2625C59.4471 41.5758 60.4072 39.5907 61.9183 39.0873C62.6667 38.838 62.8516 38.6564 62.709 38.3106C62.6066 38.0622 62.4605 36.9736 62.3846 35.891C62.2607 34.1233 62.319 33.7986 62.9551 32.7026C64.063 30.7949 65.5237 30.1987 69.0925 30.1987C72.7255 30.1987 73.6303 30.6154 75.2539 33.0364L76.4005 34.7466L78.2456 34.8065C79.6928 34.8535 80.3612 35.0264 81.3446 35.6081C82.6113 36.3572 83.7297 37.796 83.7297 38.6761C83.7297 38.9393 84.0902 39.5691 84.5307 40.0755C84.9711 40.5819 85.4729 41.5217 85.6458 42.1635C85.8187 42.8056 86.0033 43.4849 86.0562 43.6729C86.1676 44.0698 93.4878 44.179 93.4878 43.7837C93.4878 43.6564 93.2599 43.3443 92.9812 43.0898C92.7028 42.8354 92.0656 41.7392 91.5655 40.6536C90.8241 39.0446 90.6547 38.342 90.6488 36.8518C90.6425 35.1993 90.7179 34.9438 91.4345 34.1879C91.8707 33.728 92.6025 33.2807 93.0609 33.194C93.8771 33.0394 93.8944 33.0033 93.8944 31.4605C93.8944 28.3742 95.9233 26.69 99.5097 26.7994C100.815 26.8394 101.851 26.7113 102.568 26.4211C103.88 25.8903 105.478 25.8586 106.805 26.3371C107.633 26.6356 107.909 26.6285 108.546 26.2914C109.633 25.7166 112.365 25.9858 113.85 26.8139C114.49 27.171 115.376 27.9841 115.819 28.6212C116.527 29.639 116.64 30.0704 116.749 32.1713C116.842 33.9611 117.005 34.7425 117.396 35.2762C118.441 36.703 118.331 40.5936 117.167 43.3993C117.058 43.6625 117.819 43.7413 120.473 43.7413H123.92L123.76 42.5785C123.672 41.9389 123.22 40.1846 122.755 38.6799C122.289 37.1752 121.371 33.6331 120.714 30.8086C119.433 25.2972 118.338 22.247 117.107 20.7587L116.336 19.8268L111.485 19.4649C106.222 19.0726 65.5606 18.837 58.1146 19.1557ZM35.7462 27.8314C34.4497 28.9022 33.9282 29.1405 32.3864 29.3665C31.6535 29.474 30.7864 29.7388 30.4597 29.9547C29.7764 30.4067 28.9849 32.0318 28.899 33.1598L28.8401 33.9321L33.3126 33.9083C37.8412 33.8842 41.9356 33.7028 43.547 33.4552C44.3499 33.3319 44.4141 33.2522 44.2539 32.5798C43.7845 30.6061 43.0865 29.7613 41.2227 28.9099C40.2265 28.4549 39.0878 27.8508 38.6921 27.5677C37.6878 26.8487 36.8443 26.9242 35.7462 27.8314ZM109.086 28.352C109.2 28.6155 109.645 29.8157 110.075 31.0195L110.857 33.2082H112.608C113.593 33.2082 114.361 33.0884 114.362 32.9346C114.364 32.7841 114.437 32.2233 114.525 31.6884C114.656 30.886 114.551 30.5558 113.923 29.8026C112.995 28.6888 111.329 27.8872 109.926 27.8793C109.031 27.8741 108.91 27.9425 109.086 28.352ZM102.768 29.5832C102.911 30.2228 103.169 31.3615 103.342 32.1138L103.656 33.4818L105.89 33.5611C108.458 33.6525 108.434 33.6856 107.693 31.1377C107.028 28.8486 106.496 28.4204 104.321 28.4204H102.508L102.768 29.5832ZM97.0959 29.5016C96.5153 29.859 96.1377 30.3747 95.9455 31.0737C95.469 32.8055 95.5476 33.0711 96.5372 33.0733C97.0219 33.0744 98.2446 33.154 99.2549 33.2503L101.092 33.4254L100.917 31.8121C100.678 29.6026 100.243 28.9673 98.9705 28.9687C98.4149 28.9693 97.5713 29.2089 97.0959 29.5016ZM67.9234 32.5245C66.3995 32.7964 65.3754 33.4046 65.0195 34.2486C64.8802 34.5791 64.6626 35.6806 64.536 36.6964L64.3061 38.5431L65.4118 38.5519C66.0197 38.5565 67.7982 38.7374 69.3635 38.9535C72.2075 39.3464 79.1125 39.4528 80.5721 39.1264L81.3452 38.9535L80.6529 38.2011C79.998 37.4893 79.8313 37.4488 77.5503 37.4488C74.7839 37.4488 74.7752 37.443 73.4834 34.836C72.378 32.6055 70.9045 31.9927 67.9234 32.5245ZM93.6914 35.4385C93.1121 35.6037 92.8226 36.6395 93.0717 37.654C93.1737 38.0676 93.7592 39.6082 94.3734 41.0773L95.4901 43.7484L104.722 43.6764L113.953 43.6045L114.718 42.1627C115.623 40.4593 115.947 38.1278 115.448 36.9125C114.918 35.6215 113.826 35.4207 109.187 35.7616C105.685 36.0187 99.2787 35.8625 95.2497 35.422C94.6534 35.3567 93.9521 35.364 93.6914 35.4385ZM39.1404 36.3547C37.5005 36.4669 34.2039 36.5741 31.8145 36.5933C25.9848 36.6398 25.71 36.8291 26.8048 40.041C27.1018 40.9118 27.6811 42.1621 28.0923 42.8193L28.8401 44.0137L38.0857 44.0143L47.331 44.0148L48.2106 41.7684C49.2032 39.2331 49.2103 37.779 48.2345 36.793C47.7352 36.2885 47.3237 36.2135 44.8936 36.1845C43.3692 36.1662 40.7803 36.2428 39.1404 36.3547ZM62.4938 41.7736C62.1365 42.1758 62.043 42.5621 62.1658 43.1268L62.3377 43.9172L72.8949 43.8975C84.4933 43.8761 83.4982 44.0258 83.0339 42.3733C82.9493 42.0724 82.7967 41.8229 82.6951 41.819C82.5931 41.8152 79.7045 41.769 76.2756 41.7159C72.8466 41.6631 68.4555 41.5277 66.5174 41.4152C63.1682 41.221 62.969 41.2388 62.4938 41.7736ZM26.5361 46.9485C18.281 47.0547 6.65041 47.552 5.63746 47.842C4.17889 48.2601 3.71104 48.9678 3.32559 51.3412C2.65336 55.4811 2.90735 56.8025 4.5234 57.5765C5.40272 57.9978 9.42687 58.0287 57.2746 57.983C93.0696 57.9488 112.759 58.0383 121 58.273C134.167 58.6479 134.136 58.6506 134.957 57.0077C135.228 56.4652 135.393 55.1755 135.446 53.18C135.511 50.7144 135.437 49.9973 135.039 49.213C134.195 47.5485 133.229 47.279 127.162 47.0139C122.636 46.8161 40.9606 46.763 26.5361 46.9485ZM0.0612225 54.5479C0.0625778 55.6012 0.111368 55.9985 0.170188 55.431C0.228737 54.8633 0.227924 54.0015 0.16802 53.5159C0.108116 53.03 0.0601383 53.4946 0.0612225 54.5479ZM13.0374 61.1794C11.8393 61.2636 11.6227 61.3575 11.7344 61.7443C12.0946 62.9943 12.1838 65.711 12.2809 78.3855C12.3998 93.8912 12.3052 93.2278 14.4705 93.7782C15.2311 93.9714 19.1771 94.0819 25.3687 94.0838C30.7069 94.0852 37.697 94.208 40.9023 94.3566C64.8073 95.4652 92.9612 96.0873 112.869 95.9472C124.895 95.8624 125.381 95.8389 126.577 95.2808C128.205 94.5202 128.819 93.2912 128.654 91.1181C127.947 81.822 127.268 66.7145 127.456 64.4739C127.576 63.0466 127.527 62.297 127.295 61.9878C126.689 61.1785 112.895 60.9753 62.1805 61.0283C35.9419 61.056 13.8275 61.1238 13.0374 61.1794ZM42.5286 62.3577C26.229 62.5867 23.3631 62.7812 21.5595 63.779C18.4098 65.5217 19.3639 69.2127 23.1704 70.0102C24.8225 70.3565 25.8265 70.3316 41.5799 69.5555C48.9931 69.1902 52.598 69.1716 66.3819 69.4283C94.2631 69.9475 97.2455 70.0263 104.466 70.4353C118.888 71.2523 117.896 71.2405 119.308 70.6101C120.694 69.9913 121.675 68.7082 121.677 67.5118C121.679 65.8632 119.475 64.4826 116.076 64.0039C115.057 63.8605 111.052 63.6679 107.176 63.576C103.3 63.4843 94.3959 63.176 87.389 62.8915C70.6524 62.2113 61.0607 62.0972 42.5286 62.3577ZM36.0232 64.3149C29.8363 64.4473 24.3189 64.678 23.7621 64.8276C23.2054 64.9773 22.4169 65.3887 22.01 65.7422C21.344 66.3203 21.3025 66.4568 21.5958 67.1063C21.775 67.503 22.2358 67.9484 22.6201 68.0959C23.5157 68.4395 28.7922 68.4354 35.3456 68.0858C38.1781 67.9345 43.2402 67.7047 46.5945 67.5747C55.2815 67.2382 91.9103 67.6833 102.704 68.2562C114.817 68.8994 117.836 68.9068 118.765 68.2951C119.639 67.7186 119.513 67.2297 118.345 66.6672C116.374 65.7187 112.788 65.3915 100.942 65.0793C95.575 64.9379 86.9146 64.635 81.6967 64.406C71.3699 63.9535 54.5027 63.9199 36.0232 64.3149ZM29.8398 72.4957C23.0381 72.7395 21.3803 73.0628 20.0494 74.4061C18.4355 76.0351 19.2593 78.6993 21.6644 79.6294C23.2902 80.2584 25.6083 80.2488 39.4115 79.5569C47.2405 79.1646 52.3199 79.039 55.675 79.1553C58.3585 79.2481 68.3606 79.4431 77.9019 79.5887C87.4432 79.734 98.6041 80.0406 102.704 80.2699C119.155 81.19 118.751 81.2097 120.309 79.418C121.651 77.8749 121.402 76.2996 119.642 75.2015C117.762 74.0291 116.236 73.8209 107.447 73.5372C102.826 73.3881 93.1897 73.0237 86.0337 72.7274C72.2528 72.1567 42.7051 72.0347 29.8398 72.4957ZM39.9536 74.1326C21.8189 74.5117 22.1919 74.4759 21.2461 75.9325C20.7591 76.6829 21.038 77.4585 21.9772 77.966C22.7432 78.3797 28.5322 78.3154 39.0049 77.777C45.7879 77.4285 51.3112 77.3839 69.7701 77.5294C89.5344 77.6851 95.9783 77.8563 112.615 78.6675C116.364 78.8503 117.736 78.7192 118.578 78.0976C119.087 77.7215 119.087 77.7061 118.577 77.1371C117.307 75.721 113.354 75.2606 99.5867 74.9251C93.7724 74.7834 84.8071 74.4817 79.6638 74.2546C69.8536 73.8209 56.7736 73.781 39.9536 74.1326ZM31.4152 82.3702C22.4033 82.6411 21.0572 82.8676 19.5753 84.3633C18.5112 85.4374 18.3897 86.6286 19.2067 87.9804C20.4815 90.0911 22.7091 90.29 36.9985 89.5686C51.3159 88.8457 87.5793 89.2958 106.363 90.4295C116.54 91.0437 117.264 91.032 118.721 90.2271C120.305 89.3519 121.076 87.8701 120.579 86.6573C120.39 86.1988 119.798 85.5356 119.263 85.1835C117.333 83.9144 115.625 83.6818 106.092 83.3896C101.172 83.2389 91.2922 82.8734 84.1363 82.5773C70.0905 81.9962 46.9022 81.9051 31.4152 82.3702ZM41.3089 83.9811C23.8424 84.2697 22.808 84.331 21.5961 85.1526C20.3947 85.9668 20.269 87.0289 21.2939 87.703C22.2369 88.3232 25.8241 88.3125 39.8181 87.6469C48.3827 87.2395 52.0933 87.2226 73.565 87.4915C86.8333 87.6578 99.8848 87.9156 102.568 88.0644C105.252 88.2132 109.216 88.4365 111.378 88.5604C115.467 88.7946 117.458 88.6088 118.13 87.9306C119.156 86.8945 116.467 85.8303 111.513 85.3124C110.022 85.1564 103.924 84.9162 97.9603 84.7783C91.997 84.6405 84.4954 84.4049 81.2901 84.2547C71.937 83.8164 57.328 83.7166 41.3089 83.9811Z" fill="#F77500"/>
</svg>
