<svg width="40" height="40" viewBox="0 0 40 40" fill="none" xmlns="http://www.w3.org/2000/svg">
<path d="M19.541 35.8251C19.161 35.8251 18.8353 35.7165 18.5639 35.4994C18.2925 35.2823 18.089 34.9973 17.9533 34.6445C17.4376 33.1247 16.7863 31.6998 15.9992 30.3699C15.2393 29.0401 14.1672 27.4795 12.7831 25.6882C11.3989 23.897 10.2726 22.1871 9.40411 20.5587C8.56276 18.9303 8.14209 16.9626 8.14209 14.6557C8.14209 11.4803 9.24127 8.79344 11.4396 6.59508C13.6651 4.36958 16.3656 3.25684 19.541 3.25684C22.7164 3.25684 25.4033 4.36958 27.6016 6.59508C29.8271 8.79344 30.9399 11.4803 30.9399 14.6557C30.9399 17.1255 30.4649 19.1881 29.515 20.8437C28.5923 22.4721 27.5202 24.087 26.2989 25.6882C24.8333 27.6423 23.7206 29.2707 22.9607 30.5735C22.2279 31.8491 21.6172 33.2061 21.1287 34.6445C20.993 35.0245 20.7759 35.323 20.4773 35.5401C20.2059 35.7301 19.8938 35.8251 19.541 35.8251ZM19.541 30.0035C20.0024 29.0808 20.518 28.1716 21.088 27.2759C21.6851 26.3803 22.5536 25.1861 23.6934 23.6934C24.8605 22.1736 25.8104 20.7759 26.5432 19.5003C27.3031 18.1975 27.6831 16.5827 27.6831 14.6557C27.6831 12.4031 26.8824 10.4897 25.2811 8.91557C23.707 7.3143 21.7936 6.51366 19.541 6.51366C17.2883 6.51366 15.3614 7.3143 13.7601 8.91557C12.186 10.4897 11.3989 12.4031 11.3989 14.6557C11.3989 16.5827 11.7653 18.1975 12.4981 19.5003C13.258 20.7759 14.2215 22.1736 15.3885 23.6934C16.5284 25.1861 17.3833 26.3803 17.9533 27.2759C18.5504 28.1716 19.0796 29.0808 19.541 30.0035ZM19.541 18.7268C20.6809 18.7268 21.6444 18.3332 22.4314 17.5462C23.2185 16.7591 23.612 15.7956 23.612 14.6557C23.612 13.5158 23.2185 12.5524 22.4314 11.7653C21.6444 10.9782 20.6809 10.5847 19.541 10.5847C18.4011 10.5847 17.4376 10.9782 16.6506 11.7653C15.8635 12.5524 15.47 13.5158 15.47 14.6557C15.47 15.7956 15.8635 16.7591 16.6506 17.5462C17.4376 18.3332 18.4011 18.7268 19.541 18.7268Z" fill="black"/>
</svg>
