<svg width="137" height="97" viewBox="0 0 137 97" fill="none" xmlns="http://www.w3.org/2000/svg">
<path fill-rule="evenodd" clip-rule="evenodd" d="M70.8177 0.286512C64.9203 1.63758 60.0596 6.53316 58.7408 12.4502L58.3185 14.3437L56.5164 14.9662C52.199 16.457 45.9635 19.9387 41.534 23.3319C39.0449 25.2383 34.8324 29.4323 32.538 32.2882C27.8621 38.1079 24.2401 45.2862 22.3223 52.533C21.4559 55.8067 20.6912 60.1008 20.6893 61.7003L20.6882 62.6745L18.6036 62.8639C16.0927 63.0921 14.6701 63.6822 13.0729 65.1587C9.65339 68.3194 9.77309 73.8826 13.3279 77.0203C15.1951 78.6686 16.6084 79.0217 21.1127 78.9645L24.9235 78.916L24.9268 81.6891C24.9292 83.9332 25.0629 84.8738 25.6272 86.62C27.2809 91.7359 30.8758 95.1801 35.9083 96.471C45.1184 98.833 53.7607 92.2789 53.8772 82.8438C53.8936 81.5086 53.8188 80.1017 53.7109 79.7171L53.5146 79.018L58.956 78.8413C61.9486 78.7439 71.3209 78.6641 79.783 78.6638L95.1691 78.663L95.0211 80.8882C94.4385 89.648 101.132 96.973 109.744 97C111.673 97.0059 115.019 96.1471 116.797 95.1898C119.869 93.5356 122.59 89.9306 123.579 86.2032C124.009 84.583 124.092 80.9721 123.734 79.4298L123.506 78.4434L127.17 78.3447C130.274 78.2608 131.04 78.1521 132.18 77.6323C135.143 76.2805 136.995 73.4634 137 70.3014C137.003 68.1158 136.585 66.8731 135.297 65.2402C133.82 63.3677 131.903 62.4129 129.318 62.2629L127.243 62.1426L127.071 60.0857C126.787 56.6712 125.863 51.5056 125.046 48.7552C120.167 32.3271 107.969 19.6795 91.7051 14.1864L89.4253 13.4166L88.9645 11.5358C88.4072 9.26282 87.8324 8.09193 86.214 5.93275C83.4951 2.3057 79.539 0.241736 74.8873 0.0227158C73.3708 -0.0484926 71.8505 0.0499596 70.8177 0.286512ZM72.2072 2.89182C68.8808 3.39379 65.2692 5.73099 63.3858 8.60063C62.5633 9.8538 61.1581 13.0841 61.3617 13.2537C61.404 13.2888 62.8304 13.0331 64.5316 12.6857C70.8809 11.3886 77.264 11.2264 83.45 12.2053C84.9049 12.4356 86.1578 12.5611 86.2344 12.4842C86.4967 12.2212 85.4821 9.65204 84.6555 8.48546C81.5631 4.12125 77.1629 2.14413 72.2072 2.89182ZM18.6292 7.98727C9.58695 8.16853 9.39114 8.20278 9.39114 9.61239C9.39114 11.0185 9.41588 11.0215 19.6683 10.844C24.8894 10.7536 30.6493 10.609 32.4681 10.5227C35.5767 10.3752 35.8002 10.3272 36.1975 9.71947C36.5827 9.12984 36.5811 9.01359 36.1792 8.39861L35.7386 7.72429L31.3739 7.77176C28.9733 7.79792 23.2381 7.89475 18.6292 7.98727ZM69.6422 14.655C48.5923 16.9156 30.3523 32.7255 24.9964 53.3524C24.2145 56.3637 23.3812 60.9143 23.3791 62.1844L23.378 62.8334L51.15 62.6559C66.4247 62.558 89.1197 62.3989 101.583 62.3018L124.245 62.1254L124.243 60.6165C124.238 55.3438 122.037 47.2396 118.92 41.0099C111.97 27.1229 98.0802 17.1537 82.5187 14.8845C79.8959 14.502 72.3234 14.3669 69.6422 14.655ZM12.7534 19.6185C1.35999 20.1129 0.900846 20.1534 0.447618 20.7015C-0.134451 21.4052 -0.147093 21.857 0.39947 22.4054C0.929895 22.937 1.99155 22.9386 13.5603 22.4256C18.4422 22.209 23.1698 22.0291 24.0663 22.0259C24.9873 22.0226 25.9083 21.8643 26.1845 21.6617C26.6961 21.2865 26.8475 19.9967 26.4293 19.5773C25.9583 19.105 24.4873 19.1093 12.7534 19.6185ZM69.9112 19.8678C64.792 20.5831 60.4725 21.864 56.3278 23.8956C47.6178 28.1654 40.4874 35.3809 36.308 44.1541C34.7283 47.4705 34.5516 48.2794 35.3806 48.3994C35.8594 48.4685 36.0687 48.1863 36.6787 46.647C38.5228 41.9933 41.6397 37.415 45.8323 33.2007C51.9322 27.0695 59.1338 23.2569 67.7594 21.5924C71.606 20.8504 79.3002 20.91 83.0371 21.7113C84.5606 22.038 85.9224 22.2338 86.0631 22.1467C86.2807 22.0118 86.4477 20.9426 86.2516 20.9402C86.2148 20.9397 84.974 20.6923 83.4946 20.3908C80.4132 19.7623 72.7715 19.4683 69.9112 19.8678ZM71.1216 25.1102C61.2098 26.5322 51.8071 31.4898 45.2647 38.7431C42.5126 41.7946 41.8484 43.0588 42.9978 43.0588C43.3155 43.0588 43.9884 42.4513 44.7166 41.5078C49.2752 35.5992 57.0796 30.3152 64.6702 27.9985C68.0278 26.9738 69.6904 26.6433 73.4902 26.2458C76.2171 25.9607 76.5012 25.88 76.5012 25.3915C76.5012 24.9227 76.307 24.8461 75.0218 24.8076C74.2081 24.783 72.453 24.9192 71.1216 25.1102ZM10.3896 31.4335C8.55811 31.5958 8.05943 31.8947 8.05028 32.8347C8.04813 33.0713 8.28671 33.4831 8.58044 33.7499C9.08074 34.2036 9.66119 34.2227 17.6584 34.0466C22.3575 33.9433 26.4137 33.7966 26.6724 33.7205C27.2505 33.5506 27.5888 32.3403 27.2214 31.7558C26.9853 31.3801 26.0161 31.3221 19.5833 31.2986C15.5308 31.2835 11.3939 31.3442 10.3896 31.4335ZM41.0232 45.0143C40.1001 46.4557 39.6797 47.6458 39.9855 47.9525C40.1515 48.1189 40.4724 48.1842 40.698 48.0973C41.2344 47.891 42.5543 45.2722 42.3678 44.7848C42.1494 44.2143 41.46 44.3322 41.0232 45.0143ZM112.483 65.104C111.422 65.2 111.325 65.2777 111.028 66.2724C110.853 66.8583 110.759 67.3851 110.82 67.4428C110.881 67.5005 111.862 67.9094 113.002 68.3512L115.073 69.1545L115.624 67.5178C116.456 65.0473 116.414 64.8979 114.898 64.954C114.195 64.9799 113.109 65.0473 112.483 65.104ZM117.104 67.3754L116.317 69.8439L117.106 70.4098C117.54 70.7211 118.419 71.4485 119.058 72.0266C119.698 72.6046 120.261 73.0294 120.31 72.9706C120.47 72.7788 122.631 65.5787 122.631 65.238C122.631 65.0012 121.955 64.9068 120.261 64.9068H117.89L117.104 67.3754ZM123.988 65.9183C123.835 66.4747 123.178 68.5997 122.528 70.641L121.347 74.3522L121.883 75.0357C122.374 75.6614 122.569 75.7127 124.187 75.6401L125.955 75.5611L127.519 70.5711C128.379 67.8266 129.083 65.4296 129.085 65.244C129.086 64.9991 128.426 64.9068 126.676 64.9068H124.265L123.988 65.9183ZM72.7562 65.4126C72.6763 65.5423 71.9275 67.8183 71.0923 70.47C70.2571 73.1217 69.5155 75.4432 69.4445 75.6285C69.3472 75.8834 69.9311 75.9657 71.84 75.9657H74.3644L75.9355 70.9145C76.7995 68.136 77.5655 65.7085 77.6379 65.5199C77.7382 65.2575 77.1949 65.1765 75.3354 65.1765C73.997 65.1765 72.8363 65.2828 72.7562 65.4126ZM79.1891 65.4492C79.0968 65.5992 78.3824 67.7535 77.6018 70.2369C76.8215 72.72 76.095 75.0249 75.9877 75.3588C75.7948 75.9581 75.8233 75.9657 78.2372 75.9657C81.1203 75.9657 80.6332 76.5979 82.5693 70.3443C83.3198 67.9202 83.9992 65.7656 84.0791 65.5566C84.1977 65.2469 83.7741 65.1765 81.7909 65.1765C80.4414 65.1765 79.2824 65.2979 79.1891 65.4492ZM84.0603 70.2046C83.206 72.9701 82.444 75.3976 82.3668 75.5991C82.2102 76.0083 83.9228 76.0997 86.1096 75.7993L87.3205 75.6328L88.6079 71.551C89.3158 69.3061 90.0528 66.9532 90.2459 66.3229L90.5967 65.1765H88.1051H85.6136L84.0603 70.2046ZM90.7643 69.2899C90.0509 71.5521 89.3094 73.9193 89.1162 74.5496L88.7655 75.696H91.2651H93.765L94.616 72.9312C95.0843 71.4108 95.8176 69.0436 96.2455 67.6715L97.0237 65.1765H94.5426H92.0615L90.7643 69.2899ZM98.2803 65.7834C97.967 66.847 95.3966 75.0079 95.2645 75.3588C95.1881 75.5616 95.3616 75.696 95.7003 75.696C96.1 75.696 96.582 75.1889 97.3666 73.9433C97.9737 72.9793 99.35 71.3711 100.425 70.3694C102.103 68.8057 102.459 68.3097 102.939 66.8624L103.498 65.1765H100.979C98.598 65.1765 98.4492 65.21 98.2803 65.7834ZM104.516 66.4578C104.308 67.1626 104.153 67.7595 104.172 67.7843C104.191 67.8091 104.872 67.6532 105.686 67.4374C106.499 67.2219 107.636 67.08 108.212 67.1224C109.203 67.1955 109.277 67.1464 109.61 66.188L109.961 65.1765H107.428H104.895L104.516 66.4578ZM130.567 65.5043C130.499 65.695 129.855 67.7322 129.135 70.0317C128.414 72.3311 127.738 74.4854 127.631 74.8193C127.445 75.4009 127.501 75.4262 128.977 75.4262C133.651 75.4262 135.933 70.0724 132.753 66.567C131.91 65.6378 130.725 65.0614 130.567 65.5043ZM29.5473 65.6459L27.5127 65.7368L25.8838 70.9862L24.2546 76.2354L25.0941 76.2273C25.8402 76.2203 26.0377 76.0331 26.8739 74.5415C27.3914 73.6188 28.6217 72.0425 29.6078 71.0383C31.0404 69.5801 31.514 68.8778 31.9622 67.5469C32.6427 65.5266 32.6467 65.432 32.0525 65.5005C31.7935 65.5304 30.6662 65.5957 29.5473 65.6459ZM33.8636 66.1325C33.7205 66.5098 33.5238 67.1367 33.4265 67.5256C33.2718 68.1441 33.3135 68.2051 33.7605 68.0152C34.8055 67.5712 36.9724 67.0646 37.827 67.0646C38.4098 67.0646 38.7097 66.9346 38.7097 66.6822C38.7097 66.4718 38.7832 66.1076 38.873 65.873C39.0145 65.5032 38.7092 65.4463 36.58 65.4463C34.1963 65.4463 34.1161 65.4665 33.8636 66.1325ZM40.3169 66.1381C39.8887 67.268 40.0046 67.5348 41.0071 67.7233C41.5308 67.8218 42.4956 68.1328 43.1508 68.4146C44.4788 68.9854 44.4514 69.0018 44.8839 67.3848C45.0549 66.7453 45.2618 66.0472 45.3433 65.8339C45.4657 65.5142 45.0609 65.4463 43.0354 65.4463C40.6464 65.4463 40.5722 65.4651 40.3169 66.1381ZM46.2793 67.5173C45.7753 69.2354 45.7349 69.6236 46.0432 69.7965C46.2476 69.9111 47.1592 70.5544 48.0688 71.226L49.7231 72.4471L50.707 69.284C51.2482 67.5439 51.7485 65.969 51.8192 65.7834C51.916 65.5285 51.3302 65.4463 49.417 65.4463H46.8869L46.2793 67.5173ZM52.0844 69.5251L50.8143 73.6039L51.5537 74.7751C52.2684 75.9069 52.3397 75.9463 53.6843 75.9557C55.0217 75.9654 55.0862 75.9317 55.3493 75.0891C55.4999 74.6068 56.1906 72.3918 56.8843 70.1665C57.5783 67.9413 58.2037 65.969 58.2744 65.7834C58.3715 65.5285 57.787 65.4463 55.8786 65.4463H53.3545L52.0844 69.5251ZM58.1644 70.706L56.532 75.9657H59.0526C60.4386 75.9657 61.5729 75.9104 61.5729 75.843C61.5729 75.7022 64.455 66.4996 64.6979 65.8652C64.8359 65.5048 64.505 65.4463 62.3274 65.4463H59.7965L58.1644 70.706ZM65.2076 68.7505C64.6425 70.5679 63.9055 72.9345 63.5698 74.0102L62.9595 75.9657H65.4513H67.9431L68.7941 73.201C69.2624 71.6805 69.9957 69.3134 70.4236 67.9413L71.2018 65.4463H68.7186H66.2353L65.2076 68.7505ZM16.1481 66.301C14.4821 67.128 13.4258 68.861 13.4258 70.7675C13.4258 71.5591 13.5893 72.5992 13.7892 73.0791C14.1313 73.8998 15.8851 75.696 16.3445 75.696C16.4602 75.696 17.1988 73.6023 17.9858 71.0431C18.7726 68.484 19.4735 66.2387 19.5432 66.0532C19.7573 65.4832 17.4575 65.6513 16.1481 66.301ZM19.5327 70.7737C18.6755 73.5551 17.9793 75.9217 17.9861 76.0331C17.9928 76.1445 19.0784 76.2354 20.3983 76.2354H22.7983L23.073 75.3588C23.2239 74.8765 23.9162 72.6615 24.6118 70.4362C25.3071 68.211 25.9322 66.2387 26.0008 66.0532C26.0949 65.7985 25.5091 65.716 23.6085 65.7163H21.0917L19.5327 70.7737ZM34.4669 70.853C32.6395 71.7687 30.3373 74.0655 29.1981 76.1092C26.6334 80.7108 27.3287 86.4161 30.9365 90.3746C33.2764 92.9419 35.8831 94.0375 39.6512 94.0375C40.8548 94.0375 42.4655 93.8511 43.2299 93.6235C45.2478 93.0225 47.7592 91.193 48.9589 89.4503C51.3404 85.9899 51.7815 81.2931 50.0552 77.7766C48.0879 73.7696 42.1182 70.0317 37.6852 70.0317C36.4632 70.0317 35.7348 70.2175 34.4669 70.853ZM105.013 70.5377C103.211 71.3649 101.246 73.129 99.9663 75.0678C97.8903 78.2131 97.2948 80.9624 97.9801 84.2377C98.8307 88.3028 101.046 91.2914 104.454 92.9702C106.099 93.7807 106.618 93.8994 108.922 93.9922C111.956 94.1144 113.964 93.6518 115.978 92.3663C120.693 89.3572 122.603 82.6752 120.181 77.6591C118.831 74.8612 114.504 71.6303 110.545 70.4627C108.606 69.8906 106.355 69.9213 105.013 70.5377ZM32.4151 76.4757C31.7085 77.259 30.9094 80.1238 30.9094 81.8749C30.9094 86.3176 33.6317 89.8743 37.8547 90.9486C42.2872 92.0763 46.7143 89.2067 47.5766 84.6466C47.8929 82.9746 47.7194 82.3817 46.9467 82.4923C46.4757 82.5598 46.3498 82.8106 46.2282 83.9227C45.9644 86.3384 44.4261 88.4574 42.2823 89.3583C41.8062 89.5581 40.6563 89.7208 39.727 89.7192C34.3792 89.7108 30.8583 84.2089 32.8248 78.9327C33.7334 76.4946 33.5252 75.2461 32.4151 76.4757ZM116.046 76.766C115.948 76.9259 116.073 77.6771 116.324 78.4353C117.677 82.5217 115.431 87.2274 111.498 88.5461C108.276 89.6258 104.899 88.7611 102.742 86.3039C101.645 85.0537 100.844 84.8748 100.844 85.8799C100.844 86.6542 103.242 88.8131 105.013 89.6334C107.28 90.6837 110.247 90.6986 112.457 89.6709C114.484 88.7279 116.269 87.0335 117.161 85.2039C118.144 83.1904 118.343 79.9609 117.606 77.9908C117.121 76.6972 116.426 76.1507 116.046 76.766Z" fill="#F77500"/>
</svg>
