<svg width="112" height="117" viewBox="0 0 112 117" fill="none" xmlns="http://www.w3.org/2000/svg">
<path fill-rule="evenodd" clip-rule="evenodd" d="M69.4066 0.179713C68.5248 0.290463 65.7934 0.637584 63.337 0.951068C60.8805 1.26455 56.9639 1.67185 54.6334 1.85628C52.3029 2.04071 49.0562 2.29745 47.4185 2.4265C45.7809 2.55579 42.7403 2.76424 40.6618 2.88987C38.5832 3.01549 33.9689 3.37451 30.4078 3.68776C26.8466 4.00102 23.381 4.2573 22.7065 4.2573C22.0317 4.2573 21.0629 4.4042 20.5533 4.58383C20.0436 4.76345 19.4188 4.85612 19.1646 4.78977C18.6082 4.64446 16.8414 5.38012 16.8414 5.75699C16.8414 5.90412 16.4287 6.77479 15.9241 7.6919C13.7873 11.575 10.7177 23.0758 8.13733 36.8643C7.61924 39.633 6.63253 44.7751 5.94471 48.2913C3.71132 59.7081 1.95365 71.6128 1.95365 75.3224C1.95365 76.0578 1.75255 78.4142 1.50702 80.5592C0.201707 91.9561 -0.191329 97.3883 0.0821474 100.259C0.31348 102.688 0.712242 103.45 1.94678 103.819C2.87784 104.098 3.48823 103.962 6.60206 102.782C8.73811 101.973 10.2044 102.012 13.8588 102.975C17.081 103.824 20.7044 105.338 22.8989 106.752C24.5132 107.792 25.6293 108.138 27.3773 108.142C28.0702 108.143 29.2555 108.252 30.0113 108.383C33.1588 108.928 38.6176 108.509 40.4834 107.579C41.4421 107.101 41.5104 107.119 41.9476 107.964C42.4435 108.922 44.6345 111.216 45.8617 112.062C47.4007 113.123 51.602 115.126 53.7172 115.807C55.3436 116.331 56.2859 116.465 59.4432 116.621C61.5218 116.724 63.7378 116.877 64.3677 116.96C66.1304 117.193 69.9993 116.377 72.0701 115.335C74.5035 114.111 76.6743 111.853 77.9416 109.228L78.9086 107.225L79.9982 108C82.4437 109.739 85.94 111.547 87.9675 112.121C89.0967 112.441 90.6173 112.915 91.347 113.173C93.8115 114.048 94.0653 113.991 99.4111 111.365C107.493 107.394 110.311 105.831 110.783 105.058C111.385 104.071 111.342 102.771 110.691 102.315L110.176 101.955L110.204 95.0374C110.219 91.2003 110.359 87.003 110.518 85.6113C110.675 84.2315 110.834 81.5028 110.871 79.5476C111.06 69.4362 111.415 60.8218 111.75 58.2519C112.06 55.8644 112.074 55.2171 111.833 54.3839C111.404 52.9041 110.775 52.5497 108.137 52.3003C106.906 52.184 104.284 51.7191 102.311 51.2669C100.338 50.815 98.0799 50.3288 97.2925 50.1869L95.861 49.9286L95.8653 48.0872C95.8678 47.0745 96.0192 45.2162 96.2018 43.9577C96.3843 42.6992 96.5369 40.9409 96.5408 40.0504C96.5497 38.055 96.3949 38.2129 101.243 35.2607C106.468 32.0792 107.303 31.4941 107.45 30.9062C107.626 30.2072 107.265 29.5761 105.736 27.9139C105.029 27.1442 104.286 26.2747 104.085 25.9813L103.721 25.4479L102.635 25.8621C102.038 26.09 100.8 26.8783 99.8845 27.6142C97.7508 29.329 95.8165 30.6749 93.1878 32.2741C90.8294 33.7086 90.0513 34.5012 89.6255 35.9021C89.303 36.9638 89.2787 40.3144 89.5408 47.576L89.7043 52.1094L89.1422 51.7415C88.5094 51.3271 87.7932 51.4271 86.4011 52.1241C85.552 52.549 79.6915 54.5979 79.325 54.5979C79.2238 54.5979 79.1409 54.4226 79.1409 54.2084C79.1409 53.8336 78.839 52.4351 77.6441 47.2756C77.3381 45.9542 76.9796 43.9689 76.8473 42.8639C76.7151 41.759 76.2428 39.0818 75.798 36.9146C75.3532 34.7474 74.842 31.4298 74.662 29.542C74.2845 25.5848 74.3388 25.9012 73.1897 20.9612C72.7066 18.8847 72.2579 16.5937 72.1927 15.87L72.0738 14.5542H73.0992C74.4421 14.5542 75.366 14.0554 75.6778 13.1619C75.8759 12.5939 75.8344 11.9777 75.4812 10.2375C75.1576 8.64357 75.0474 7.27224 75.0832 5.28699C75.1262 2.90199 75.0708 2.42353 74.6631 1.64691C73.814 0.0300645 72.817 -0.248182 69.4066 0.179713ZM70.6663 3.1132C70.3514 3.21388 69.4753 3.30769 68.7195 3.32165C67.9636 3.33538 66.1828 3.55001 64.7623 3.79829C63.3418 4.04656 60.765 4.36027 59.0362 4.49527C57.3074 4.63005 54.0379 4.89594 51.7703 5.08609C49.5028 5.27601 45.5862 5.51993 43.0667 5.62771C40.5473 5.73571 36.9914 5.9341 35.1648 6.06842C29.7637 6.46611 24.1636 6.78074 22.5484 6.77753C21.7191 6.7757 20.9827 6.83222 20.9119 6.90293C20.8412 6.97363 21.02 7.46262 21.3093 7.98982C21.7981 8.87971 22.2958 11.342 22.6824 14.7831C22.8572 16.3379 23.3022 17.0713 24.0711 17.0713C24.3883 17.0713 25.9062 16.8173 27.4442 16.507C28.982 16.1965 31.1165 15.832 32.1872 15.6967C33.258 15.5617 35.6286 15.1897 37.4552 14.8702C40.6091 14.3186 42.8363 14.133 52.1139 13.6488C55.8363 13.4545 60.2786 12.9921 66.429 12.1587C67.8147 11.9708 69.8411 11.8153 70.9318 11.813L72.9153 11.8084L72.5722 10.6071C72.3409 9.79728 72.2355 8.44358 72.249 6.45398C72.2728 2.89765 72.1501 2.63839 70.6663 3.1132ZM17.4339 7.75094C17.3506 8.28363 16.6747 11.1391 15.9321 14.0966C14.3329 20.4663 12.7063 28.4185 11.1346 37.5507C10.5065 41.2004 9.57801 46.2459 9.07114 48.7629C7.2514 57.8016 5.55626 69.8991 5.15795 76.6907C5.03931 78.7108 4.83088 81.1306 4.69437 82.068C4.55786 83.0055 4.35287 84.9052 4.23858 86.2896C4.12428 87.6739 3.93303 89.6818 3.8137 90.7516C3.69437 91.8213 3.52832 94.0798 3.44495 95.7701L3.29332 98.8438L4.28393 98.0429C7.16047 95.7183 12.3622 92.4036 15.9933 90.5815L17.1401 90.0061L16.9942 86.3172C16.914 84.2883 16.7337 81.5472 16.5936 80.2258C16.4536 78.9044 16.4023 76.7873 16.48 75.5212C16.5736 73.9962 16.5042 72.3356 16.275 70.6016C15.8533 67.4114 15.791 54.3258 16.182 51.0143C16.3813 49.3249 16.3714 48.2703 16.1375 46.2846C15.7816 43.2628 15.7841 30.0303 16.141 28.4846C16.2681 27.9334 16.3746 26.9584 16.3778 26.3177C16.3808 25.677 16.5434 24.6473 16.739 24.0295C17.1797 22.6376 17.4905 19.8842 17.7441 15.1263C17.8515 13.1127 18.0622 10.8512 18.2127 10.1009C18.4287 9.02203 18.4252 8.55272 18.1957 7.85825C17.7954 6.64619 17.6112 6.6201 17.4339 7.75094ZM64.2531 15.1384C59.9416 15.7903 56.1237 16.229 49.4799 16.8358C46.7085 17.0889 43.4103 17.395 42.1506 17.5163C39.1545 17.8044 29.2193 19.2956 27.6064 19.6993C26.9135 19.8727 25.8476 20.0862 25.2376 20.1738C24.1847 20.3249 24.1355 20.3635 24.2665 20.9331C24.3425 21.2633 24.5503 22.8719 24.7285 24.5079C24.9064 26.144 25.2154 28.6668 25.4147 30.114C25.6142 31.5613 26.1978 36.0405 26.7117 40.0678C27.2255 44.095 28.1462 50.4276 28.7578 54.1402C29.3693 57.8528 29.9357 61.8172 30.0164 62.9498C30.0972 64.0825 30.4046 66.7082 30.6996 68.7848C30.9948 70.8613 31.4941 74.7227 31.8093 77.3655C32.1245 80.0084 32.4935 83.0975 32.6288 84.2302C32.7644 85.3628 33.0294 87.8341 33.2179 89.7219C33.4064 91.6096 33.7273 94.8017 33.9314 96.8153C34.1355 98.8289 34.3547 101.693 34.4188 103.18L34.5351 105.884L35.468 105.727C36.5972 105.536 40.2039 104.557 40.3633 104.398C40.4261 104.335 40.3643 103.757 40.2262 103.112C39.8501 101.361 39.9208 97.921 40.4318 93.1045C40.9529 88.1913 41.2994 86.647 42.3017 84.7679C42.9568 83.5403 45.7287 80.5326 47.0438 79.6229C47.5896 79.2451 51.6512 77.9939 54.4043 77.3555L55.8931 77.0102L55.9181 74.5385C55.9478 71.6052 56.2502 70.1467 57.2806 67.969C58.1054 66.2256 59.8645 64.3411 60.9123 64.0784C62.4171 63.701 63.4011 64.8841 63.6991 67.4281C63.8299 68.5434 63.3239 72.4196 62.7224 74.9135L62.5962 75.4361L63.711 74.8375C64.7428 74.2833 64.9959 74.2453 67.1162 74.3243C69.3331 74.4071 69.4744 74.4451 71.5172 75.5064C72.6782 76.1093 74.0953 76.9594 74.6665 77.3951C75.2609 77.8486 75.705 78.0605 75.7048 77.8909C75.7046 77.7278 75.5481 76.0498 75.3576 74.162C74.9867 70.4918 74.4444 61.1968 74.4881 59.264C74.5193 57.8888 74.9753 56.903 75.9226 56.1623C76.6061 55.628 76.6065 55.6257 76.271 54.6523C76.0861 54.116 75.675 52.3657 75.3578 50.7626C75.0406 49.1593 74.6379 47.3328 74.4632 46.7036C74.2882 46.0743 74.0756 44.7357 73.9904 43.7289C73.9054 42.7221 73.4311 39.8069 72.9364 37.2507C72.4416 34.6946 71.8857 30.9362 71.7011 28.8988C71.5165 26.8614 71.1059 23.5984 70.7884 21.6477C70.3482 18.941 70.246 17.6808 70.3573 16.3276L70.5032 14.5542L69.1533 14.5778C68.4107 14.5908 66.2057 14.843 64.2531 15.1384ZM19.5093 18.2726C19.4298 18.9334 19.3643 20.1947 19.3636 21.0756C19.3629 21.9566 19.1637 23.3982 18.9209 24.2791C18.6781 25.1601 18.3668 27.1165 18.2289 28.6267C17.8684 32.578 17.8522 42.1358 18.2017 44.7773C18.3769 46.1031 18.436 47.8667 18.3508 49.2393C18.0276 54.4549 17.9358 65.9966 18.1934 69.0136C18.5984 73.7541 18.8334 87.7014 18.5336 89.207C18.4236 89.7592 18.4786 89.8363 18.9816 89.8363C19.8029 89.8363 20.7686 90.7429 21.8423 92.5217C22.356 93.3729 23.6314 95.009 24.676 96.1574C25.9314 97.5375 27.2211 99.3225 28.4786 101.42C30.5537 104.883 31.3913 106.039 31.643 105.787C31.9955 105.435 31.9955 102.968 31.6428 99.4053C31.4396 97.3514 31.1107 93.6667 30.9117 91.217C30.7127 88.767 30.5152 86.7067 30.4728 86.6385C30.4307 86.5703 30.2798 85.2795 30.1375 83.7705C29.9955 82.2614 29.728 79.894 29.5434 78.5096C28.916 73.8051 28.0862 66.6203 27.8457 63.8088C27.714 62.2675 27.356 59.6933 27.0503 58.0883C25.9703 52.4188 25.3785 48.1463 24.285 38.1228C23.8386 34.0326 23.3641 30.1198 23.2305 29.4276C23.0968 28.7354 22.8911 26.779 22.7734 25.08C22.4321 20.1555 22.3986 19.999 21.5709 19.4739C21.1742 19.2222 20.6435 18.5824 20.3916 18.052C20.1396 17.5218 19.8705 17.0841 19.7935 17.0795C19.7166 17.0749 19.5888 17.6117 19.5093 18.2726ZM66.6741 23.4524C66.6052 23.5638 66.702 23.7824 66.8896 23.9379C67.1093 24.1201 67.2323 24.6386 67.235 25.3939C67.2373 26.0394 67.4474 28.1119 67.7016 29.9996C68.4918 35.8666 68.5174 36.7711 67.9267 37.9901C66.8301 40.2533 65.6544 39.8403 64.7518 36.8748C64.4861 36.0016 64.3949 34.5104 64.3775 30.7559C64.3649 28.0256 64.2831 25.7202 64.1959 25.6328C63.4352 24.8729 63.2055 33.3958 63.8995 36.6354C64.115 37.6423 64.4856 38.7813 64.7227 39.1669C65.7465 40.8316 67.3278 40.7618 68.5135 38.9996C69.6748 37.2743 69.6778 36.7821 68.5825 28.2835C68.0662 24.2766 68.0207 24.0714 67.5429 23.594C67.1519 23.2034 66.8578 23.1556 66.6741 23.4524ZM102.16 27.2691C101.782 27.4648 101.163 27.9114 100.785 28.2615C99.0053 29.9109 95.3163 32.6791 93.7 33.5786C92.7141 34.1271 91.7641 34.7932 91.5886 35.0586C91.0348 35.8966 90.5937 38.5472 90.8145 39.709C91.511 43.3728 91.918 53.3421 91.47 55.7761C91.3181 56.6021 91.3264 56.6133 92.2705 56.8527C92.8497 56.9996 93.3069 57.0122 93.4347 56.8845C93.5504 56.7689 93.6736 54.7205 93.7089 52.3326C93.7439 49.9427 93.9448 46.7242 94.1557 45.1734C94.3662 43.6239 94.6042 41.3215 94.6846 40.057C94.7881 38.4216 94.9491 37.577 95.2419 37.1311C95.6404 36.5242 98.8289 34.342 103.076 31.7693C104.21 31.0826 105.182 30.4788 105.237 30.4275C105.292 30.3765 104.962 29.9502 104.504 29.4807C104.046 29.0109 103.51 28.2407 103.313 27.7686C103.116 27.2968 102.931 26.9112 102.901 26.9119C102.871 26.9128 102.538 27.0735 102.16 27.2691ZM39.8885 29.4848C39.3198 39.7302 39.572 47.1575 40.6748 52.6529C41.7802 58.1615 42.6792 60.7882 43.9927 62.3478C44.9025 63.4278 45.0931 62.9798 44.3501 61.5078C41.3775 55.62 39.9797 45.2803 40.3638 32.0233C40.4618 28.6407 40.4305 27.1394 40.2621 27.1394C40.1146 27.1394 39.9673 28.0638 39.8885 29.4848ZM45.2426 35.9579C45.2426 40.0476 45.6792 46.0473 46.2992 50.4791C47.2628 57.3677 48.4453 61.3151 50.1144 63.2141C50.8068 64.0019 52.0569 64.7992 52.2683 64.588C52.3299 64.5266 51.8917 63.8772 51.2946 63.145C50.6977 62.4126 49.9641 61.2598 49.6643 60.5829C47.8136 56.4021 46.4082 47.5669 46.0278 37.7223C45.9007 34.4301 45.8006 33.5464 45.5546 33.5464C45.3111 33.5464 45.2426 34.0756 45.2426 35.9579ZM55.4357 35.6048C55.0285 36.2629 57.1906 51.2651 58.074 53.9114C58.6453 55.6223 59.6091 57.2918 60.2783 57.7297C60.9217 58.151 61.2664 57.9549 60.8752 57.3899C60.1734 56.3767 58.7941 53.2082 58.5642 52.0808C57.9529 49.0847 56.7007 40.9878 56.4588 38.4681C56.3138 36.959 56.1471 35.646 56.088 35.5506C55.9371 35.3067 55.6027 35.3346 55.4357 35.6048ZM68.834 48.4197C68.6991 48.6714 68.4171 48.8774 68.2076 48.8774C67.9247 48.8774 67.8928 48.9439 68.0843 49.1352C68.6391 49.6894 70.025 48.8201 69.6228 48.1703C69.4128 47.8307 69.0958 47.9312 68.834 48.4197ZM95.7464 54.8461V58.0691L95.1038 58.6217C94.2006 59.3983 92.5854 59.3745 90.7636 58.5576L89.3882 57.9409L89.5348 55.4113C89.6558 53.3252 89.6296 52.9474 89.3864 53.2563C89.0646 53.665 86.0151 55.2843 85.5674 55.2843C85.415 55.2843 84.2419 55.6896 82.9602 56.1847C81.6784 56.6799 80.1839 57.2007 79.6393 57.3421L78.6491 57.5993L80.2139 58.6972C82.415 60.2415 83.4123 60.7069 86.4054 61.5867C87.8498 62.0114 89.4602 62.6066 89.984 62.9093C90.5078 63.2123 91.3142 63.5821 91.7758 63.731C92.894 64.0921 93.6981 63.739 95.6319 62.0378C96.7183 61.082 98.0181 60.293 100.442 59.1187C102.268 58.2336 104.897 56.8801 106.282 56.1108L108.802 54.7123L107.313 54.5757C105.524 54.4116 98.6118 52.7193 97.1173 52.0795C96.5314 51.8285 95.9833 51.6232 95.8992 51.623C95.8152 51.623 95.7464 53.0735 95.7464 54.8461ZM109.011 56.6625C108.749 56.7621 107.965 57.2071 107.269 57.6517C106.574 58.0963 104.317 59.2944 102.254 60.3143C99.8151 61.5202 97.7815 62.7183 96.4379 63.7409C95.2208 64.6671 93.9723 65.4186 93.3988 65.5703L92.4253 65.8277V76.5736C92.4253 82.4836 92.4812 87.3192 92.5495 87.3192C92.6177 87.3192 92.9732 86.652 93.3394 85.8365C94.1074 84.1267 95.4443 82.0852 97.1049 80.0871C97.7435 79.3188 98.9874 77.6838 99.8692 76.4541C100.751 75.2245 101.826 73.7431 102.258 73.1623C102.69 72.5814 103.54 71.3455 104.148 70.4156C104.755 69.4859 105.611 68.3289 106.048 67.8448C106.486 67.3606 106.989 66.619 107.166 66.1968C107.342 65.7746 107.743 65.2282 108.055 64.9822C108.543 64.5987 108.647 64.2765 108.787 62.7128C108.877 61.7105 109.092 59.9163 109.267 58.726C109.441 57.5355 109.563 56.5435 109.536 56.5216C109.51 56.4998 109.274 56.5632 109.011 56.6625ZM77.0896 59.4603C77.0951 59.7436 77.1986 60.4385 77.3198 61.0049C77.6757 62.6668 77.9906 74.7311 77.754 77.6312C77.5451 80.1922 77.5483 80.2215 78.1347 81.0779C79.0891 82.4721 79.9393 84.3016 80.7694 86.7472C81.5378 89.0118 81.5454 89.0741 81.5064 92.8109C81.4625 97.018 81.0845 99.7074 80.0454 103.204C79.6743 104.452 79.3963 105.495 79.4276 105.521C79.4588 105.547 80.2575 105.903 81.2023 106.311C82.1471 106.72 83.8138 107.509 84.9061 108.066C85.9984 108.622 87.7613 109.358 88.8234 109.702L90.7547 110.326L90.9173 102.413C91.0334 96.7572 91.0023 93.9175 90.8078 92.4579C90.4191 89.5397 90.6631 73.0401 91.1477 69.4712C91.7048 65.3694 91.8436 65.7552 89.3905 64.5875C88.2254 64.0328 86.5504 63.3949 85.6686 63.17C83.4084 62.5931 81.4521 61.6755 79.3582 60.2097C78.3649 59.5143 77.446 58.9455 77.3159 58.9455C77.1858 58.9455 77.0841 59.177 77.0896 59.4603ZM10.8501 62.3206C10.3034 62.9139 9.54228 64.1543 8.53999 66.0856C8.08328 66.9659 8.15932 67.8695 8.69001 67.8695C9.19161 67.8695 10.769 65.7742 11.6481 63.9402C12.111 62.9748 12.4896 62.0737 12.4896 61.938C12.4896 61.4531 11.4195 61.7028 10.8501 62.3206ZM82.6947 65.1895C82.3188 65.7197 81.4654 66.9256 80.7985 67.8695C79.6445 69.5021 79.3855 70.3572 79.9854 70.5545C80.5997 70.7565 84.3179 65.292 84.0467 64.5857C83.8152 63.983 83.4274 64.1562 82.6947 65.1895ZM60.4084 67.0212C59.8899 67.5507 59.1812 68.6017 58.8338 69.3568C58.2293 70.6705 58.2023 70.8828 58.208 74.2765C58.2188 80.7759 58.2767 81.8113 58.6631 82.4005C59.0126 82.9332 59.0033 82.9584 58.3972 83.1103C57.225 83.4043 56.4746 82.4376 56.4691 80.6262C56.4673 80.0283 56.4091 79.5393 56.3397 79.5393C56.2706 79.5393 55.8899 79.7066 55.4941 79.9112C54.8505 80.2436 52.7296 80.9056 49.8468 81.6735C48.7587 81.9635 46.7087 83.6327 45.1819 85.472C43.7772 87.1643 43.4162 88.7471 42.7516 96.1288C42.4978 98.947 42.7692 102.37 43.3851 104.121C44.5383 107.399 45.8805 108.698 50.3993 110.91C54.4543 112.894 56.3814 113.405 59.8191 113.405C61.2453 113.405 63.1329 113.528 64.0138 113.679C67.2071 114.226 71.6036 112.839 73.9109 110.556C75.2446 109.236 76.4146 106.803 77.4989 103.094C78.5161 99.6136 78.833 97.5336 79.0532 92.8933L79.2066 89.6578L78.369 87.516C76.8573 83.6501 76.1894 82.5152 74.3434 80.6741C73.0058 79.3398 72.1294 78.7039 70.4808 77.871C68.5179 76.8793 68.2172 76.7942 66.7016 76.8015C64.9771 76.8102 64.6462 76.9305 63.2657 78.052C62.5069 78.6684 62.4208 78.8492 62.4208 79.8254C62.4208 80.4233 62.5046 80.9123 62.607 80.9123C62.7094 80.9123 63.0933 80.5992 63.4602 80.2166C64.3766 79.2611 65.0316 79.3748 65.1256 80.5056C65.2653 82.1889 63.7639 84.4919 61.7596 85.669C60.334 86.5062 57.9948 86.5383 56.4579 85.7415C55.8954 85.45 55.208 85.0935 54.9304 84.9496C54.0314 84.483 53.7458 83.1851 54.4804 82.9037C54.6286 82.8467 55.471 82.9906 56.3523 83.2231C58.2225 83.7167 59.1947 83.7615 60.0083 83.3911C60.536 83.1508 60.5772 83.0419 60.4199 82.3042C59.9455 80.0812 60.2701 76.5747 61.5323 70.287C61.9623 68.1454 61.9581 66.4334 61.5227 66.1645C61.4286 66.1064 60.9272 66.492 60.4084 67.0212ZM108.229 66.9542C108.034 67.3194 108.055 67.4118 108.336 67.4118C108.535 67.4118 108.687 67.213 108.687 66.9542C108.687 66.7025 108.639 66.4966 108.581 66.4966C108.522 66.4966 108.364 66.7025 108.229 66.9542ZM10.7938 67.3448C8.14489 70.5988 7.37989 72.2059 8.38905 72.3967C9.04022 72.52 11.5734 68.7546 11.5734 67.6633C11.5734 67.0208 11.1861 66.8627 10.7938 67.3448ZM84.4089 67.8665C84.4089 68.0091 83.9118 68.66 83.3044 69.3133C81.3894 71.3725 80.0197 73.3232 80.0987 73.8788C80.2433 74.8947 80.9968 74.457 82.4411 72.5184C83.2084 71.4887 84.1757 70.206 84.5902 69.6678C85.3871 68.634 85.478 67.8107 84.8097 67.6834C84.5893 67.6413 84.4089 67.7237 84.4089 67.8665ZM105.994 69.7101C105.232 70.8332 103.79 72.7779 101.869 75.2721C101.079 76.2976 100.152 77.5845 99.8076 78.1316C99.4636 78.6787 98.7668 79.6569 98.259 80.3054C97.7515 80.9539 97.0941 81.8447 96.7982 82.2852C96.3438 82.9616 96.4056 82.9261 97.1965 82.0564C97.7114 81.49 98.5234 80.4816 99.0009 79.8155C99.4785 79.1494 100.488 77.8268 101.243 76.8763C102.639 75.121 105.713 70.7744 106.467 69.4898C107.067 68.4678 106.73 68.6246 105.994 69.7101ZM10.1774 71.8102C10.0269 72.0969 9.50174 72.8399 9.01044 73.4612C8.09244 74.6222 7.9399 75.4709 8.62542 75.6013C9.09404 75.6903 10.8863 72.9321 10.8863 72.1219C10.8863 71.3462 10.5084 71.1801 10.1774 71.8102ZM83.6933 72.5031C83.5426 72.7864 82.8177 73.6962 82.0818 74.525C80.8871 75.8709 80.3647 77.0223 80.9485 77.0223C81.2217 77.0223 83.6771 74.3602 84.2119 73.4843C84.4453 73.1019 84.6365 72.6088 84.637 72.3887C84.6384 71.8178 84.0174 71.8931 83.6933 72.5031ZM84.0589 76.585C83.9753 76.8479 83.5408 77.677 83.0935 78.4275C82.4991 79.424 82.3479 79.8601 82.533 80.045C82.7178 80.2297 82.8864 80.2148 83.1581 79.9894C83.6558 79.5769 84.8669 77.1541 84.8669 76.5713C84.8669 75.9615 84.2536 75.972 84.0589 76.585ZM9.16848 81.2946C7.51571 83.3153 7.05099 84.6436 7.78415 85.2516C8.24796 85.636 8.56244 85.3756 9.07389 84.1839C9.31576 83.6199 9.83591 82.7103 10.2296 82.1628C11.4291 80.494 10.4672 79.7071 9.16848 81.2946ZM8.99624 85.9051C8.23972 87.506 8.18177 88.2345 8.8114 88.2345C9.05602 88.2345 9.33843 88.1059 9.43944 87.9485C9.76811 87.4359 10.245 86.0774 10.3629 85.3171C10.4582 84.7031 10.4039 84.5734 10.0521 84.5734C9.75735 84.5734 9.43165 84.9844 8.99624 85.9051ZM68.834 86.4282C68.834 86.819 69.0023 87.7714 69.208 88.5448C69.7692 90.6534 69.6643 92.9254 68.8372 96.5865C68.0619 100.018 68.0426 101.383 68.7616 101.909C69.7453 102.628 70.8427 101.809 72.6739 98.9891C74.6576 95.9339 75.5419 92.6759 75.0353 90.2896C74.7229 88.8182 74.5076 88.5025 73.364 87.8377C72.2059 87.1648 72.0981 87.5284 73.0999 88.7265L73.9304 89.7196L73.8092 91.5513C73.6546 93.8853 72.7941 96.5606 71.4778 98.8008C70.4698 100.516 69.7318 101.122 69.2435 100.634C69.0875 100.478 69.2492 99.3374 69.7387 97.1382C70.6556 93.0192 70.8379 90.6307 70.3706 88.8638C69.9677 87.3405 70.2201 87.3078 70.7939 88.8089C71.4636 90.5607 71.8839 89.8651 71.3108 87.9535C70.9801 86.8508 69.9684 85.7175 69.3147 85.7175C68.9297 85.7175 68.834 85.8589 68.834 86.4282ZM106.028 88.4633C105.132 89.4072 103.751 91.1577 102.959 92.3533C102.166 93.5489 100.574 95.6598 99.4196 97.0441C98.2652 98.4285 96.623 100.462 95.7703 101.563C94.5795 103.101 94.0911 103.566 93.666 103.566H93.1125V107.341C93.1125 109.552 93.202 111.117 93.3284 111.117C93.6819 111.117 101.473 107.293 104.632 105.569L107.563 103.969L107.42 101.536C107.341 100.198 107.371 98.2798 107.486 97.2729C107.602 96.2661 107.62 94.6701 107.527 93.7262C107.433 92.7823 107.457 91.1694 107.579 90.142C107.701 89.1143 107.769 87.9302 107.729 87.5105L107.657 86.7472L106.028 88.4633ZM85.459 88.9896C84.6782 90.0125 83.0018 93.0832 83.1459 93.2272C83.6564 93.7372 87.1473 89.3635 86.8493 88.5874C86.6308 88.0187 86.0781 88.1787 85.459 88.9896ZM92.5781 88.3871C92.494 88.4709 92.432 88.7542 92.4398 89.0164C92.4533 89.4546 92.4721 89.4489 92.6738 88.945C92.8981 88.3849 92.8516 88.1137 92.5781 88.3871ZM92.4709 90.2939C92.4709 90.6085 92.5536 91.1234 92.6544 91.438L92.8378 92.0101V91.438C92.8378 91.1234 92.7551 90.6085 92.6544 90.2939L92.4709 89.7219V90.2939ZM46.9992 90.2312C46.9341 90.3367 46.2545 91.6204 45.4891 93.0839C44.4678 95.0367 44.0974 95.9865 44.0974 96.6526C44.0974 97.7754 44.5534 98.2507 45.0768 97.6725C45.6322 97.0588 48.025 91.2197 47.9462 90.6701C47.8762 90.1802 47.219 89.8759 46.9992 90.2312ZM14.4365 93.8086C12.5469 94.86 9.86706 96.4124 8.48135 97.2581C7.09565 98.1038 5.37027 99.0708 4.64719 99.4072C3.92433 99.7435 3.33157 100.148 3.33019 100.305C3.32699 100.693 3.3957 100.681 5.61833 99.9044C7.18727 99.3561 7.94585 99.2234 9.52625 99.2209C12.6538 99.2161 17.0851 100.537 22.5212 103.093C24.7908 104.161 26.2367 104.71 26.7816 104.71C27.2353 104.71 27.6064 104.656 27.6064 104.589C27.6064 104.344 25.9165 101.124 25.1994 100.002C24.791 99.3632 23.6879 98.0191 22.7479 97.0151C21.8082 96.011 20.6501 94.5255 20.1749 93.7141C19.6994 92.9027 19.193 92.1632 19.0494 92.0707C18.4701 91.698 17.726 91.9783 14.4365 93.8086ZM84.978 93.5267C83.8889 95.0046 83.6351 95.6252 83.76 96.5059C83.9075 97.5475 84.5163 97.0359 85.7027 94.8728C86.5731 93.2862 86.8291 92.624 86.6539 92.413C86.2549 91.933 86.0538 92.0666 84.978 93.5267ZM47.2435 95.4996C46.5947 96.5503 45.4717 99.2543 45.4717 99.7664C45.4717 99.8243 45.6336 100.033 45.8315 100.231C46.3244 100.724 46.8459 100.683 46.8459 100.153C46.8459 99.9119 47.1932 98.8049 47.6176 97.6931C48.0418 96.581 48.4623 95.3367 48.5518 94.9275C48.8159 93.7214 48.1664 94.0054 47.2435 95.4996ZM48.4506 98.871C48.3239 99.204 48.2202 99.5769 48.2202 99.6996C48.2202 99.8222 48.014 100.326 47.7621 100.82C46.9176 102.473 47.2983 104.029 48.28 102.936C48.7213 102.445 49.4167 99.8412 49.321 99.0388C49.2245 98.2324 48.73 98.137 48.4506 98.871ZM49.7939 102.479C49.7777 102.51 49.7337 102.793 49.6964 103.108C49.659 103.423 49.5576 104.103 49.4712 104.619C49.2738 105.799 49.6492 106.597 50.3544 106.497C50.8088 106.432 50.8604 106.274 50.922 104.746C50.9902 103.052 50.7779 102.421 50.1391 102.421C49.9655 102.421 49.8102 102.447 49.7939 102.479Z" fill="#F77500"/>
</svg>
