<svg width="44" height="44" viewBox="0 0 44 44" fill="none" xmlns="http://www.w3.org/2000/svg">
<path opacity="0.8" d="M42.9795 24.6156L42.8304 24.5995C42.8817 24.1253 42.9581 23.6238 43.0001 23.4851L43.1437 23.5286C43.1437 23.5286 43.1437 23.5286 43.1437 23.5286C43.1618 23.469 43.1741 23.3771 43.1838 23.2747C43.1938 23.168 43.2019 23.0367 43.2083 22.8909C43.2211 22.5991 43.2271 22.2439 43.2264 21.9002C43.2258 21.5568 43.2185 21.2227 43.2046 20.9733C43.1977 20.8493 43.189 20.7428 43.178 20.6656C43.1727 20.6281 43.1659 20.5909 43.1565 20.5605C43.1522 20.5463 43.1444 20.5241 43.1306 20.5024C43.1257 20.4948 43.1111 20.473 43.0853 20.4547C43.0843 20.4513 43.0833 20.4474 43.0822 20.4429C43.071 20.3982 43.0625 20.3287 43.0625 20.2468C43.0625 19.9993 43.0065 19.5249 42.9222 18.985C42.8373 18.4414 42.7219 17.8202 42.5997 17.2736C42.2079 15.5214 41.3696 13.3349 40.4907 11.7731C37.2237 5.96784 31.645 2.10676 25.0511 1.08702C24.4363 0.991962 23.3591 0.934051 22.2915 0.918476C21.224 0.902902 20.1503 0.92942 19.5429 1.00672C12.1277 1.95041 5.8373 6.50993 2.80237 13.1457C-0.0143774 19.3046 0.227621 26.3754 3.45776 32.2459C5.51321 35.9816 8.71824 39.0654 12.5013 40.9466C16.4851 42.9275 20.7787 43.6229 25.0911 42.9843C28.7755 42.4387 32.3202 40.8879 35.2631 38.5348C39.4973 35.1493 42.4076 29.901 42.9795 24.6156ZM8.24629 34.4094L7.80265 33.877C6.56274 32.3891 5.18527 29.9661 4.57728 28.2047L4.43549 28.2536L4.57728 28.2046C2.46965 22.099 3.61647 15.4375 7.63297 10.4466C8.36244 9.54024 9.8576 8.07622 10.7246 7.4188C13.5589 5.26972 16.7163 4.01742 20.242 3.64365C20.7008 3.59503 21.5795 3.58718 22.4688 3.61088C23.3579 3.63458 24.2413 3.68938 24.7095 3.7628L24.7327 3.61462L24.7095 3.7628C27.09 4.13611 29.4479 4.97245 31.3969 6.13344C31.8108 6.37999 32.4468 6.81591 33.0213 7.23505C33.308 7.44426 33.578 7.64825 33.7959 7.82112C34.0167 7.99631 34.176 8.13337 34.2477 8.21067L34.3317 8.30131L31.5612 11.0704C30.4475 12.1835 29.7271 12.8926 29.2786 13.3113C29.0535 13.5215 28.9009 13.6547 28.803 13.7289C28.7977 13.7329 28.7926 13.7367 28.7878 13.7402C28.4024 13.1178 27.5575 12.0577 26.9804 11.4774C25.2018 9.6888 23.1175 8.79635 21.2985 9.09575L21.3229 9.24375L21.2985 9.09575C19.3996 9.40835 17.3875 10.8736 15.8606 13.018C15.1993 13.9467 14.136 16.0212 13.7103 17.2112C13.0569 19.0375 12.6566 21.0508 12.4864 23.3567C12.3399 25.3411 12.5206 27.067 13.0331 28.5091C13.1437 28.8202 13.2463 29.1314 13.2776 29.2449C13.2665 29.2665 13.2447 29.3005 13.2069 29.3505C13.1304 29.4517 13.0022 29.5998 12.8059 29.8114C12.4142 30.2334 11.7642 30.8941 10.7463 31.9113L8.24629 34.4094ZM13.2839 29.2314C13.2843 29.2296 13.2847 29.2287 13.2848 29.2287C13.2848 29.2287 13.2846 29.2296 13.2839 29.2314ZM31.3605 26.7605L31.2128 26.7345L31.3605 26.7605C31.5609 25.6229 31.593 24.8127 31.5003 23.2997C31.3344 20.5895 30.8646 18.3169 30.0488 16.2956L29.7896 15.6534L32.7771 12.6624L35.7319 9.70403L35.8201 9.78681C35.9462 9.90534 36.2679 10.3026 36.621 10.7679C36.9705 11.2287 37.3386 11.7399 37.5547 12.076C38.5094 13.5611 39.3575 15.4791 39.807 17.1689C41.1339 22.1579 40.4196 27.3026 37.8019 31.6247C35.524 35.3859 31.9471 38.2399 27.8117 39.5966C22.4092 41.369 16.5719 40.6 11.8615 37.4962L11.7789 37.6214L11.8615 37.4962C11.5094 37.2642 10.9283 36.837 10.4338 36.4566C10.1868 36.2667 9.96304 36.0897 9.80156 35.9558C9.73944 35.9043 9.68751 35.86 9.64742 35.8242C9.6736 35.7974 9.7048 35.7656 9.74075 35.7291C9.86474 35.6031 10.0442 35.4218 10.2658 35.1986C10.709 34.7523 11.3205 34.1387 11.9931 33.4658L11.887 33.3597L11.9931 33.4658L14.3163 31.1413L14.6347 31.5697C16.7851 34.4643 20.7924 35.7354 24.5349 34.7285C28.0698 33.7776 30.659 30.7421 31.3605 26.7605ZM15.4205 29.0077L15.2863 29.0747L15.4205 29.0077C14.7048 27.5764 14.4712 26.4774 14.4829 24.5593L14.3329 24.5584L14.4829 24.5593C14.5073 20.539 15.7111 16.623 17.7665 13.8478C18.0549 13.4585 18.4886 12.9924 18.9337 12.5767C19.3803 12.1596 19.8277 11.8033 20.142 11.6269C20.447 11.4558 20.9322 11.2517 21.2117 11.1757C22.1805 10.9124 23.2053 11.143 24.373 11.9247C26.3339 13.2376 27.9831 15.8466 28.8215 19.0063C29.3488 20.9938 29.6531 24.0161 29.4872 25.5768C29.0864 29.3496 26.8942 32.0932 23.747 32.8242C20.2512 33.6361 16.9844 32.1354 15.4205 29.0077Z" fill="#F77500" stroke="#F77500" stroke-width="0.3"/>
</svg>
