<svg width="12" height="19" viewBox="0 0 12 19" fill="none" xmlns="http://www.w3.org/2000/svg">
<path fill-rule="evenodd" clip-rule="evenodd" d="M7.86667 0.070638C6.2224 0.34087 4.99262 1.24568 4.40401 2.61823C4.08263 3.3678 4.04497 3.63148 4.01956 5.31162L3.99649 6.83514L2.64356 6.83584C1.12124 6.83658 1.08024 6.84407 0.976321 7.13882C0.886149 7.39468 0.911108 10.3902 1.00472 10.543C1.10829 10.7122 1.36725 10.7423 2.72287 10.7425L4.00571 10.7428V14.7409V18.7389L4.12597 18.8695L4.24623 19H6.14797H8.04971L8.16992 18.8695L8.29013 18.7389V14.7194V10.6998L9.95732 10.6864C11.4801 10.6742 11.6323 10.6658 11.7134 10.5899C11.7956 10.5132 11.8024 10.3747 11.8024 8.76533V7.02382L11.6889 6.91785C11.5761 6.81244 11.567 6.81179 9.92863 6.79843L8.28171 6.78499L8.2984 5.54241C8.31484 4.31643 8.31669 4.29708 8.43959 4.09439C8.66667 3.71982 8.75908 3.69865 10.2852 3.67181C11.4376 3.65153 11.625 3.63799 11.7416 3.56654C11.8153 3.52146 11.8881 3.43772 11.9033 3.38046C11.9186 3.32324 11.9246 2.57846 11.9166 1.72548L11.902 0.174516L11.7844 0.0856638C11.6735 0.00183552 11.5697 -0.00300247 9.96599 0.00095169C8.74314 0.00392894 8.15323 0.0235137 7.86667 0.070638Z" fill="black"/>
</svg>
