<svg width="44" height="43" viewBox="0 0 44 43" fill="none" xmlns="http://www.w3.org/2000/svg">
<mask id="path-1-outside-1_72_377" maskUnits="userSpaceOnUse" x="0" y="-0.312622" width="44" height="44" fill="black">
<rect fill="white" y="-0.312622" width="44" height="44"/>
<path fill-rule="evenodd" clip-rule="evenodd" d="M20.4289 0.743748C13.9234 1.24847 7.96417 4.78679 4.39697 10.263C0.535589 16.1907 -0.0763232 23.7361 2.77929 30.21C4.77587 34.7363 8.3324 38.4408 12.7523 40.598C14.7147 41.5559 16.518 42.1412 18.5406 42.4769C26.7139 43.8334 34.8595 40.3089 39.4534 33.428C40.6156 31.6871 41.391 30.069 42.0542 28.0001C42.7743 25.754 43.244 22.0902 43.0203 20.4643C42.9699 20.0981 42.8703 19.3546 42.7989 18.812C41.8713 11.7614 37.1802 5.4925 30.6241 2.54242C27.4991 1.13626 23.7944 0.482673 20.4289 0.743748ZM20.221 3.1568C16.7546 3.49391 13.4812 4.79066 10.6213 6.95982C9.16254 8.06626 7.4681 9.90028 6.39256 11.5371C5.77293 12.4801 4.76832 14.5083 4.4179 15.5239C3.68489 17.6479 3.39605 19.4168 3.39778 21.7713C3.39909 23.5535 3.4954 24.4454 3.85492 26.0047C4.46043 28.6308 5.95347 31.6196 7.70957 33.7212L8.21598 34.3272L11.4899 31.05L14.7638 27.7728V27.1965C14.7638 26.1865 15.0136 25.7168 15.6006 25.6227C15.7726 25.5952 15.9133 25.5554 15.9133 25.5343C15.9133 25.5131 15.8386 25.3907 15.7472 25.2623C15.4925 24.9041 15.1132 24.0458 14.9675 23.4976C14.7831 22.8045 14.7142 20.883 14.8583 20.4591C14.9805 20.0996 15.4009 19.7573 15.7202 19.7573C15.9563 19.7573 15.9587 19.7233 15.7442 19.4216C15.4754 19.0438 15.0377 18.0309 14.9299 17.5379C14.8755 17.2892 14.8124 16.6049 14.7895 16.0171C14.74 14.7417 14.8245 14.3949 15.2565 14.102C15.5365 13.9119 15.5781 13.908 16.8985 13.9446C17.6436 13.9654 18.3417 14.0112 18.4499 14.0466C18.6342 14.1067 18.643 14.0956 18.5892 13.8721C18.5575 13.7407 18.5106 13.2207 18.485 12.7165C18.3857 10.7637 18.9746 9.46074 20.7337 7.7409C21.4617 7.02911 21.7359 6.87301 22.0983 6.96409C22.2038 6.99056 22.7491 7.48468 23.3103 8.06215C24.4094 9.19317 24.7725 9.75322 25.099 10.8212C25.3895 11.7713 25.4072 13.2608 25.1365 13.9672C25.0893 14.0902 25.1108 14.1016 25.2797 14.0439C25.3889 14.0065 26.1787 13.9649 27.0347 13.9515L28.5911 13.9272L31.5748 10.9443L34.5585 7.96129L34.2056 7.64251C30.6093 4.39403 25.2324 2.66934 20.221 3.1568ZM21.3215 9.54615C20.4732 10.4499 20.1005 11.3336 20.1005 12.4413C20.1005 13.5751 20.5289 14.5654 21.3834 15.4067L21.9198 15.9349L22.407 15.4088C23.3058 14.438 23.6321 13.6364 23.6292 12.4058C23.6265 11.2338 23.3002 10.4661 22.36 9.41898C22.1475 9.18241 21.9446 8.98882 21.9091 8.98882C21.8736 8.98882 21.6092 9.23962 21.3215 9.54615ZM32.3516 12.5469L28.9676 15.9357L28.8888 16.7574C28.785 17.84 28.4528 18.7887 27.9357 19.4798L27.7435 19.7367L28.0762 19.7813C28.4721 19.8345 28.7629 20.0841 28.8946 20.4837C29.025 20.8792 28.9353 22.931 28.7594 23.5746C28.623 24.0741 28.2466 24.888 27.972 25.2776C27.8874 25.3976 27.8182 25.5131 27.8182 25.5343C27.8182 25.5554 27.9626 25.5959 28.1391 25.624C28.5256 25.6859 28.853 26.0352 28.935 26.473C29.0222 26.9382 28.9061 28.8677 28.7579 29.4161C28.5151 30.3148 28.01 31.1616 27.2867 31.8822C26.1971 32.9679 24.9603 33.4852 23.4536 33.4852H22.7278V34.9278C22.7278 36.5012 22.6737 36.7414 22.2785 36.9216C21.9725 37.0613 21.741 37.0434 21.4347 36.8564C21.288 36.7668 21.1607 36.6837 21.1519 36.6717C21.1431 36.6597 21.1155 35.9471 21.0904 35.0881L21.0447 33.5263L20.1005 33.4746C18.5301 33.3887 17.5118 32.9387 16.4018 31.8399C15.9166 31.3596 15.7061 31.0726 15.4555 30.5501C15.2783 30.1806 15.1147 29.876 15.0918 29.8733C15.069 29.8705 13.7807 31.1398 12.2288 32.6941L9.40729 35.5199L10.0125 36.0269C12.5153 38.1234 15.6325 39.5557 18.9921 40.1531C19.9063 40.3156 20.3365 40.3428 21.9889 40.3428C24.1494 40.3428 25.1202 40.2175 27.0245 39.6923C33.767 37.8328 38.9219 32.2409 40.2863 25.306C40.6642 23.3856 40.7211 20.7841 40.4258 18.9225C40.0486 16.5432 39.2145 14.222 37.993 12.1515C37.5524 11.4046 36.2678 9.65252 35.9321 9.34056L35.7356 9.15799L32.3516 12.5469ZM16.488 16.2054C16.488 17.4285 16.875 18.3402 17.7333 19.1388C18.4893 19.8423 19.3333 20.1656 20.4175 20.1674L21.0218 20.1684L20.9904 19.2847C20.9625 18.4983 20.9302 18.3395 20.6968 17.843C20.0423 16.4502 18.6137 15.57 17.0011 15.5662L16.488 15.565V16.2054ZM25.7165 15.6872C25.0613 15.8299 24.5013 16.1203 23.9849 16.5852C23.1361 17.3492 22.7278 18.2885 22.7278 19.4769V20.1684H23.3263C24.9167 20.1684 26.1967 19.3782 26.8935 17.9666C27.1809 17.3845 27.2027 17.2866 27.2312 16.4546L27.2616 15.565L26.7394 15.5715C26.4522 15.5751 25.9919 15.6272 25.7165 15.6872ZM1.00193 21.6891C1.0021 22.2316 1.0154 22.4429 1.03141 22.1586C1.0475 21.8742 1.04742 21.4303 1.03116 21.1721C1.01491 20.9139 1.00177 21.1466 1.00193 21.6891ZM16.488 22.0417C16.488 23.1989 16.8034 24.0079 17.5727 24.8231C18.2723 25.5644 19.3464 26.0047 20.4553 26.0047H21.0218L20.9914 25.1151C20.9631 24.2858 20.9405 24.1843 20.6588 23.6149C19.9687 22.2203 18.6039 21.4014 16.9695 21.4014H16.488V22.0417ZM25.7745 21.4903C25.2026 21.6028 24.4094 22.0154 23.9649 22.4316C23.1196 23.2233 22.7278 24.1359 22.7278 25.3133V26.0047H23.2575C25.5602 26.0047 27.2435 24.3677 27.2435 22.1283V21.4014L26.6893 21.4104C26.3845 21.4154 25.9728 21.4513 25.7745 21.4903ZM16.488 27.866C16.488 29.0357 16.8009 29.8414 17.5727 30.6594C18.2723 31.4007 19.3464 31.8411 20.4553 31.8411H21.0218L20.9914 30.9515C20.9631 30.1222 20.9405 30.0206 20.6588 29.4513C19.9855 28.0905 18.8424 27.3561 17.2475 27.2596L16.488 27.2136V27.866ZM25.7745 27.3267C25.2026 27.4392 24.4094 27.8517 23.9649 28.268C23.1196 29.0597 22.7278 29.9723 22.7278 31.1497V31.8411H23.2575C24.8857 31.8411 26.2129 31.032 26.8979 29.6216C27.1745 29.0522 27.1998 28.9376 27.2295 28.1214L27.2616 27.2378L26.6984 27.2468C26.3885 27.2517 25.9728 27.2877 25.7745 27.3267Z"/>
</mask>
<path fill-rule="evenodd" clip-rule="evenodd" d="M20.4289 0.743748C13.9234 1.24847 7.96417 4.78679 4.39697 10.263C0.535589 16.1907 -0.0763232 23.7361 2.77929 30.21C4.77587 34.7363 8.3324 38.4408 12.7523 40.598C14.7147 41.5559 16.518 42.1412 18.5406 42.4769C26.7139 43.8334 34.8595 40.3089 39.4534 33.428C40.6156 31.6871 41.391 30.069 42.0542 28.0001C42.7743 25.754 43.244 22.0902 43.0203 20.4643C42.9699 20.0981 42.8703 19.3546 42.7989 18.812C41.8713 11.7614 37.1802 5.4925 30.6241 2.54242C27.4991 1.13626 23.7944 0.482673 20.4289 0.743748ZM20.221 3.1568C16.7546 3.49391 13.4812 4.79066 10.6213 6.95982C9.16254 8.06626 7.4681 9.90028 6.39256 11.5371C5.77293 12.4801 4.76832 14.5083 4.4179 15.5239C3.68489 17.6479 3.39605 19.4168 3.39778 21.7713C3.39909 23.5535 3.4954 24.4454 3.85492 26.0047C4.46043 28.6308 5.95347 31.6196 7.70957 33.7212L8.21598 34.3272L11.4899 31.05L14.7638 27.7728V27.1965C14.7638 26.1865 15.0136 25.7168 15.6006 25.6227C15.7726 25.5952 15.9133 25.5554 15.9133 25.5343C15.9133 25.5131 15.8386 25.3907 15.7472 25.2623C15.4925 24.9041 15.1132 24.0458 14.9675 23.4976C14.7831 22.8045 14.7142 20.883 14.8583 20.4591C14.9805 20.0996 15.4009 19.7573 15.7202 19.7573C15.9563 19.7573 15.9587 19.7233 15.7442 19.4216C15.4754 19.0438 15.0377 18.0309 14.9299 17.5379C14.8755 17.2892 14.8124 16.6049 14.7895 16.0171C14.74 14.7417 14.8245 14.3949 15.2565 14.102C15.5365 13.9119 15.5781 13.908 16.8985 13.9446C17.6436 13.9654 18.3417 14.0112 18.4499 14.0466C18.6342 14.1067 18.643 14.0956 18.5892 13.8721C18.5575 13.7407 18.5106 13.2207 18.485 12.7165C18.3857 10.7637 18.9746 9.46074 20.7337 7.7409C21.4617 7.02911 21.7359 6.87301 22.0983 6.96409C22.2038 6.99056 22.7491 7.48468 23.3103 8.06215C24.4094 9.19317 24.7725 9.75322 25.099 10.8212C25.3895 11.7713 25.4072 13.2608 25.1365 13.9672C25.0893 14.0902 25.1108 14.1016 25.2797 14.0439C25.3889 14.0065 26.1787 13.9649 27.0347 13.9515L28.5911 13.9272L31.5748 10.9443L34.5585 7.96129L34.2056 7.64251C30.6093 4.39403 25.2324 2.66934 20.221 3.1568ZM21.3215 9.54615C20.4732 10.4499 20.1005 11.3336 20.1005 12.4413C20.1005 13.5751 20.5289 14.5654 21.3834 15.4067L21.9198 15.9349L22.407 15.4088C23.3058 14.438 23.6321 13.6364 23.6292 12.4058C23.6265 11.2338 23.3002 10.4661 22.36 9.41898C22.1475 9.18241 21.9446 8.98882 21.9091 8.98882C21.8736 8.98882 21.6092 9.23962 21.3215 9.54615ZM32.3516 12.5469L28.9676 15.9357L28.8888 16.7574C28.785 17.84 28.4528 18.7887 27.9357 19.4798L27.7435 19.7367L28.0762 19.7813C28.4721 19.8345 28.7629 20.0841 28.8946 20.4837C29.025 20.8792 28.9353 22.931 28.7594 23.5746C28.623 24.0741 28.2466 24.888 27.972 25.2776C27.8874 25.3976 27.8182 25.5131 27.8182 25.5343C27.8182 25.5554 27.9626 25.5959 28.1391 25.624C28.5256 25.6859 28.853 26.0352 28.935 26.473C29.0222 26.9382 28.9061 28.8677 28.7579 29.4161C28.5151 30.3148 28.01 31.1616 27.2867 31.8822C26.1971 32.9679 24.9603 33.4852 23.4536 33.4852H22.7278V34.9278C22.7278 36.5012 22.6737 36.7414 22.2785 36.9216C21.9725 37.0613 21.741 37.0434 21.4347 36.8564C21.288 36.7668 21.1607 36.6837 21.1519 36.6717C21.1431 36.6597 21.1155 35.9471 21.0904 35.0881L21.0447 33.5263L20.1005 33.4746C18.5301 33.3887 17.5118 32.9387 16.4018 31.8399C15.9166 31.3596 15.7061 31.0726 15.4555 30.5501C15.2783 30.1806 15.1147 29.876 15.0918 29.8733C15.069 29.8705 13.7807 31.1398 12.2288 32.6941L9.40729 35.5199L10.0125 36.0269C12.5153 38.1234 15.6325 39.5557 18.9921 40.1531C19.9063 40.3156 20.3365 40.3428 21.9889 40.3428C24.1494 40.3428 25.1202 40.2175 27.0245 39.6923C33.767 37.8328 38.9219 32.2409 40.2863 25.306C40.6642 23.3856 40.7211 20.7841 40.4258 18.9225C40.0486 16.5432 39.2145 14.222 37.993 12.1515C37.5524 11.4046 36.2678 9.65252 35.9321 9.34056L35.7356 9.15799L32.3516 12.5469ZM16.488 16.2054C16.488 17.4285 16.875 18.3402 17.7333 19.1388C18.4893 19.8423 19.3333 20.1656 20.4175 20.1674L21.0218 20.1684L20.9904 19.2847C20.9625 18.4983 20.9302 18.3395 20.6968 17.843C20.0423 16.4502 18.6137 15.57 17.0011 15.5662L16.488 15.565V16.2054ZM25.7165 15.6872C25.0613 15.8299 24.5013 16.1203 23.9849 16.5852C23.1361 17.3492 22.7278 18.2885 22.7278 19.4769V20.1684H23.3263C24.9167 20.1684 26.1967 19.3782 26.8935 17.9666C27.1809 17.3845 27.2027 17.2866 27.2312 16.4546L27.2616 15.565L26.7394 15.5715C26.4522 15.5751 25.9919 15.6272 25.7165 15.6872ZM1.00193 21.6891C1.0021 22.2316 1.0154 22.4429 1.03141 22.1586C1.0475 21.8742 1.04742 21.4303 1.03116 21.1721C1.01491 20.9139 1.00177 21.1466 1.00193 21.6891ZM16.488 22.0417C16.488 23.1989 16.8034 24.0079 17.5727 24.8231C18.2723 25.5644 19.3464 26.0047 20.4553 26.0047H21.0218L20.9914 25.1151C20.9631 24.2858 20.9405 24.1843 20.6588 23.6149C19.9687 22.2203 18.6039 21.4014 16.9695 21.4014H16.488V22.0417ZM25.7745 21.4903C25.2026 21.6028 24.4094 22.0154 23.9649 22.4316C23.1196 23.2233 22.7278 24.1359 22.7278 25.3133V26.0047H23.2575C25.5602 26.0047 27.2435 24.3677 27.2435 22.1283V21.4014L26.6893 21.4104C26.3845 21.4154 25.9728 21.4513 25.7745 21.4903ZM16.488 27.866C16.488 29.0357 16.8009 29.8414 17.5727 30.6594C18.2723 31.4007 19.3464 31.8411 20.4553 31.8411H21.0218L20.9914 30.9515C20.9631 30.1222 20.9405 30.0206 20.6588 29.4513C19.9855 28.0905 18.8424 27.3561 17.2475 27.2596L16.488 27.2136V27.866ZM25.7745 27.3267C25.2026 27.4392 24.4094 27.8517 23.9649 28.268C23.1196 29.0597 22.7278 29.9723 22.7278 31.1497V31.8411H23.2575C24.8857 31.8411 26.2129 31.032 26.8979 29.6216C27.1745 29.0522 27.1998 28.9376 27.2295 28.1214L27.2616 27.2378L26.6984 27.2468C26.3885 27.2517 25.9728 27.2877 25.7745 27.3267Z" fill="#00A601"/>
<path fill-rule="evenodd" clip-rule="evenodd" d="M20.4289 0.743748C13.9234 1.24847 7.96417 4.78679 4.39697 10.263C0.535589 16.1907 -0.0763232 23.7361 2.77929 30.21C4.77587 34.7363 8.3324 38.4408 12.7523 40.598C14.7147 41.5559 16.518 42.1412 18.5406 42.4769C26.7139 43.8334 34.8595 40.3089 39.4534 33.428C40.6156 31.6871 41.391 30.069 42.0542 28.0001C42.7743 25.754 43.244 22.0902 43.0203 20.4643C42.9699 20.0981 42.8703 19.3546 42.7989 18.812C41.8713 11.7614 37.1802 5.4925 30.6241 2.54242C27.4991 1.13626 23.7944 0.482673 20.4289 0.743748ZM20.221 3.1568C16.7546 3.49391 13.4812 4.79066 10.6213 6.95982C9.16254 8.06626 7.4681 9.90028 6.39256 11.5371C5.77293 12.4801 4.76832 14.5083 4.4179 15.5239C3.68489 17.6479 3.39605 19.4168 3.39778 21.7713C3.39909 23.5535 3.4954 24.4454 3.85492 26.0047C4.46043 28.6308 5.95347 31.6196 7.70957 33.7212L8.21598 34.3272L11.4899 31.05L14.7638 27.7728V27.1965C14.7638 26.1865 15.0136 25.7168 15.6006 25.6227C15.7726 25.5952 15.9133 25.5554 15.9133 25.5343C15.9133 25.5131 15.8386 25.3907 15.7472 25.2623C15.4925 24.9041 15.1132 24.0458 14.9675 23.4976C14.7831 22.8045 14.7142 20.883 14.8583 20.4591C14.9805 20.0996 15.4009 19.7573 15.7202 19.7573C15.9563 19.7573 15.9587 19.7233 15.7442 19.4216C15.4754 19.0438 15.0377 18.0309 14.9299 17.5379C14.8755 17.2892 14.8124 16.6049 14.7895 16.0171C14.74 14.7417 14.8245 14.3949 15.2565 14.102C15.5365 13.9119 15.5781 13.908 16.8985 13.9446C17.6436 13.9654 18.3417 14.0112 18.4499 14.0466C18.6342 14.1067 18.643 14.0956 18.5892 13.8721C18.5575 13.7407 18.5106 13.2207 18.485 12.7165C18.3857 10.7637 18.9746 9.46074 20.7337 7.7409C21.4617 7.02911 21.7359 6.87301 22.0983 6.96409C22.2038 6.99056 22.7491 7.48468 23.3103 8.06215C24.4094 9.19317 24.7725 9.75322 25.099 10.8212C25.3895 11.7713 25.4072 13.2608 25.1365 13.9672C25.0893 14.0902 25.1108 14.1016 25.2797 14.0439C25.3889 14.0065 26.1787 13.9649 27.0347 13.9515L28.5911 13.9272L31.5748 10.9443L34.5585 7.96129L34.2056 7.64251C30.6093 4.39403 25.2324 2.66934 20.221 3.1568ZM21.3215 9.54615C20.4732 10.4499 20.1005 11.3336 20.1005 12.4413C20.1005 13.5751 20.5289 14.5654 21.3834 15.4067L21.9198 15.9349L22.407 15.4088C23.3058 14.438 23.6321 13.6364 23.6292 12.4058C23.6265 11.2338 23.3002 10.4661 22.36 9.41898C22.1475 9.18241 21.9446 8.98882 21.9091 8.98882C21.8736 8.98882 21.6092 9.23962 21.3215 9.54615ZM32.3516 12.5469L28.9676 15.9357L28.8888 16.7574C28.785 17.84 28.4528 18.7887 27.9357 19.4798L27.7435 19.7367L28.0762 19.7813C28.4721 19.8345 28.7629 20.0841 28.8946 20.4837C29.025 20.8792 28.9353 22.931 28.7594 23.5746C28.623 24.0741 28.2466 24.888 27.972 25.2776C27.8874 25.3976 27.8182 25.5131 27.8182 25.5343C27.8182 25.5554 27.9626 25.5959 28.1391 25.624C28.5256 25.6859 28.853 26.0352 28.935 26.473C29.0222 26.9382 28.9061 28.8677 28.7579 29.4161C28.5151 30.3148 28.01 31.1616 27.2867 31.8822C26.1971 32.9679 24.9603 33.4852 23.4536 33.4852H22.7278V34.9278C22.7278 36.5012 22.6737 36.7414 22.2785 36.9216C21.9725 37.0613 21.741 37.0434 21.4347 36.8564C21.288 36.7668 21.1607 36.6837 21.1519 36.6717C21.1431 36.6597 21.1155 35.9471 21.0904 35.0881L21.0447 33.5263L20.1005 33.4746C18.5301 33.3887 17.5118 32.9387 16.4018 31.8399C15.9166 31.3596 15.7061 31.0726 15.4555 30.5501C15.2783 30.1806 15.1147 29.876 15.0918 29.8733C15.069 29.8705 13.7807 31.1398 12.2288 32.6941L9.40729 35.5199L10.0125 36.0269C12.5153 38.1234 15.6325 39.5557 18.9921 40.1531C19.9063 40.3156 20.3365 40.3428 21.9889 40.3428C24.1494 40.3428 25.1202 40.2175 27.0245 39.6923C33.767 37.8328 38.9219 32.2409 40.2863 25.306C40.6642 23.3856 40.7211 20.7841 40.4258 18.9225C40.0486 16.5432 39.2145 14.222 37.993 12.1515C37.5524 11.4046 36.2678 9.65252 35.9321 9.34056L35.7356 9.15799L32.3516 12.5469ZM16.488 16.2054C16.488 17.4285 16.875 18.3402 17.7333 19.1388C18.4893 19.8423 19.3333 20.1656 20.4175 20.1674L21.0218 20.1684L20.9904 19.2847C20.9625 18.4983 20.9302 18.3395 20.6968 17.843C20.0423 16.4502 18.6137 15.57 17.0011 15.5662L16.488 15.565V16.2054ZM25.7165 15.6872C25.0613 15.8299 24.5013 16.1203 23.9849 16.5852C23.1361 17.3492 22.7278 18.2885 22.7278 19.4769V20.1684H23.3263C24.9167 20.1684 26.1967 19.3782 26.8935 17.9666C27.1809 17.3845 27.2027 17.2866 27.2312 16.4546L27.2616 15.565L26.7394 15.5715C26.4522 15.5751 25.9919 15.6272 25.7165 15.6872ZM1.00193 21.6891C1.0021 22.2316 1.0154 22.4429 1.03141 22.1586C1.0475 21.8742 1.04742 21.4303 1.03116 21.1721C1.01491 20.9139 1.00177 21.1466 1.00193 21.6891ZM16.488 22.0417C16.488 23.1989 16.8034 24.0079 17.5727 24.8231C18.2723 25.5644 19.3464 26.0047 20.4553 26.0047H21.0218L20.9914 25.1151C20.9631 24.2858 20.9405 24.1843 20.6588 23.6149C19.9687 22.2203 18.6039 21.4014 16.9695 21.4014H16.488V22.0417ZM25.7745 21.4903C25.2026 21.6028 24.4094 22.0154 23.9649 22.4316C23.1196 23.2233 22.7278 24.1359 22.7278 25.3133V26.0047H23.2575C25.5602 26.0047 27.2435 24.3677 27.2435 22.1283V21.4014L26.6893 21.4104C26.3845 21.4154 25.9728 21.4513 25.7745 21.4903ZM16.488 27.866C16.488 29.0357 16.8009 29.8414 17.5727 30.6594C18.2723 31.4007 19.3464 31.8411 20.4553 31.8411H21.0218L20.9914 30.9515C20.9631 30.1222 20.9405 30.0206 20.6588 29.4513C19.9855 28.0905 18.8424 27.3561 17.2475 27.2596L16.488 27.2136V27.866ZM25.7745 27.3267C25.2026 27.4392 24.4094 27.8517 23.9649 28.268C23.1196 29.0597 22.7278 29.9723 22.7278 31.1497V31.8411H23.2575C24.8857 31.8411 26.2129 31.032 26.8979 29.6216C27.1745 29.0522 27.1998 28.9376 27.2295 28.1214L27.2616 27.2378L26.6984 27.2468C26.3885 27.2517 25.9728 27.2877 25.7745 27.3267Z" stroke="#00A601" stroke-width="0.4" mask="url(#path-1-outside-1_72_377)"/>
</svg>
