<svg width="43" height="44" viewBox="0 0 43 44" fill="none" xmlns="http://www.w3.org/2000/svg">
<path opacity="0.8" d="M25.0082 16.5067C25.0259 16.5391 25.056 16.5548 25.0819 16.5592C25.1036 16.5629 25.1213 16.559 25.1297 16.5567C25.1472 16.552 25.1622 16.5438 25.1711 16.5385C25.1913 16.5266 25.2156 16.5088 25.242 16.488C25.2961 16.4453 25.3726 16.3792 25.4696 16.2916C25.6642 16.116 25.9473 15.8489 26.3111 15.4979C27.0389 14.7956 28.0927 13.7548 29.4142 12.4315L33.6067 8.23308L33.6802 8.15949L33.6038 8.08894L33.2569 7.76863C32.4183 6.99407 30.7046 5.84484 29.4553 5.21756C27.7856 4.37919 25.6835 3.71 23.8071 3.4194C23.297 3.34041 22.3671 3.2838 21.4529 3.25996C20.5391 3.23612 19.6296 3.2447 19.161 3.29838L19.1724 3.39773L19.161 3.29838C18.0024 3.43119 16.9251 3.64098 15.9204 3.9299C6.40525 6.66603 0.685747 16.1864 2.71679 25.906C3.11479 27.8108 4.03088 30.1207 5.03826 31.7599C5.26956 32.1362 5.683 32.7264 6.07534 33.2563C6.27175 33.5217 6.46355 33.7728 6.62543 33.9756C6.78566 34.1763 6.92086 34.335 7.00252 34.411L7.21993 34.6135L7.29062 34.6794L7.35887 34.611L11.7607 30.2005L16.1626 25.79L16.2337 25.7188L16.162 25.6482L15.6578 25.1507C15.373 24.8698 14.4647 24.1865 13.641 23.6309C12.8141 23.0732 11.8795 22.3652 11.5529 22.0513C10.5029 21.042 9.75213 19.7193 9.37245 18.2055C9.2701 17.7972 9.22302 17.1043 9.23149 16.4019C9.23995 15.6997 9.30374 15.0045 9.41613 14.592C10.1558 11.8775 12.1189 9.86239 14.8266 9.03895C15.1579 8.9382 15.3682 8.8839 15.6411 8.8531C15.9168 8.82199 16.2581 8.81465 16.8516 8.81152C17.9757 8.80561 18.2497 8.83144 18.8237 8.98862C20.0817 9.33326 21.1992 9.95397 22.1496 10.8359C23.2947 11.8985 23.9039 12.9602 24.5203 14.9885C24.6374 15.3736 24.75 15.7352 24.8372 16.0075C24.8808 16.1436 24.9181 16.2578 24.9465 16.3416C24.9607 16.3835 24.9728 16.4182 24.9825 16.4446C24.9909 16.4677 25.0002 16.4919 25.0082 16.5067ZM25.0082 16.5067L25.096 16.4588M25.0082 16.5067C25.0083 16.5067 25.0083 16.5068 25.0083 16.5068L25.096 16.4588M25.096 16.4588C25.0659 16.4037 24.8499 15.7289 24.616 14.9594M25.096 16.4588C25.0999 16.4659 25.123 16.4533 25.1646 16.4215C25.1648 16.4213 25.165 16.4212 25.1651 16.4211C25.1705 16.417 25.1761 16.4126 25.1821 16.4079C25.1827 16.4089 25.1833 16.4099 25.1838 16.411L25.1838 16.4109C25.1839 16.4111 25.1838 16.4108 25.1834 16.4098C25.1831 16.4092 25.1828 16.4085 25.1825 16.4076C25.5464 16.1193 27.0362 14.6712 29.3434 12.3608L33.4653 8.23323L33.4681 8.23589L33.536 8.16242L33.4652 8.09175L33.4624 8.09453L33.189 7.8421L24.616 14.9594M24.616 14.9594C23.9961 12.9198 23.3794 11.8407 22.2176 10.7626C21.2554 9.86965 20.1236 9.24104 18.8501 8.89217C18.2628 8.73136 17.978 8.7056 16.851 8.71152C15.6662 8.71778 15.464 8.74057 14.7975 8.94328C12.0571 9.77665 10.0684 11.8178 9.31965 14.5657C9.08801 15.4159 9.06428 17.3875 9.27546 18.2298C9.65938 19.7605 10.4192 21.1002 11.4836 22.1234C11.8169 22.4437 12.7576 23.1557 13.5851 23.7139C14.4091 24.2696 15.3102 24.9483 15.5876 25.2219L16.0206 25.6491M24.616 14.9594L16.0206 25.6491M16.0206 25.6491L16.021 25.6487L16.0918 25.7193L16.0216 25.7905L16.0212 25.7901L11.69 30.1299L7.28809 34.5404L7.07066 34.3378C6.76905 34.057 5.58147 32.4528 5.12346 31.7075L16.0206 25.6491ZM3.11769 10.9679L3.20337 11.0194C1.2307 14.2968 0.190642 17.878 0.116055 21.5388C0.117799 21.5442 0.11881 21.5484 0.119332 21.5506L0.119393 21.5508C0.121287 21.5587 0.122778 21.5672 0.12401 21.5752L3.11769 10.9679ZM3.11769 10.9679L3.20337 11.0194C4.68851 8.55194 7.18408 6.00395 9.71803 4.36904C12.5117 2.56659 15.8228 1.4301 19.2013 1.11446C22.052 0.848145 25.4325 1.29397 28.1636 2.29669C30.1349 3.02047 32.5734 4.40579 34.243 5.75071L34.3057 5.67284L34.243 5.75071C38.1852 8.9262 40.9959 13.8998 41.7099 18.9649C42.0053 21.0601 42.0377 21.8634 41.8927 23.4271C41.6608 25.9266 41.1886 27.9162 40.3181 30.0651C39.2208 32.7733 37.2109 35.623 35.0195 37.5773C31.7843 40.4626 28.0059 42.1919 23.5726 42.815C23.1028 42.881 22.0979 42.9149 21.0795 42.9152C20.0615 42.9155 19.0435 42.8822 18.5481 42.8163C16.3632 42.5258 13.9809 41.8383 12.1358 40.9662L12.0931 41.0566L12.1358 40.9662C6.53308 38.3184 2.32909 33.2641 0.80299 27.3432C0.382777 25.7128 0.155194 24.0749 0.117387 22.449M3.11769 10.9679L0.117387 22.449M0.117387 22.449C0.11834 22.4457 0.118958 22.4431 0.11933 22.4416L0.119391 22.4413C0.121285 22.4334 0.122777 22.425 0.124009 22.4169L0.117387 22.449ZM0.13106 22.3548C0.148925 22.1565 0.148924 21.8358 0.13106 21.6374L0.13106 22.3548ZM25.8595 18.1808L25.797 18.2435L25.8517 18.3132L26.0567 18.5745L26.0567 18.5745C26.2145 18.7756 26.4864 19.0219 26.905 19.3429C27.325 19.665 27.8986 20.0666 28.6648 20.5781C30.9379 22.0958 32.0108 23.4612 32.586 25.5453C32.7033 25.9704 32.7677 26.7053 32.7732 27.447C32.7786 28.189 32.725 28.9195 32.6141 29.3362C31.8661 32.1455 29.7987 34.2477 27.0455 35.0015C26.4701 35.159 26.1843 35.1871 25.1063 35.1841C24.4524 35.1823 24.0228 35.1635 23.6297 35.0992C23.2375 35.0351 22.8779 34.9249 22.3646 34.736C20.9433 34.213 19.5237 33.0796 18.6586 31.7757C18.1106 30.9496 17.8704 30.4011 17.5229 29.1732C17.3686 28.6281 17.1735 27.9814 17.0892 27.7358L16.9946 27.7683L17.0892 27.7358L16.9376 27.2944L16.8851 27.1416L16.7717 27.2568L12.6118 31.4837L8.45203 35.7106L8.38469 35.7791L8.45031 35.8491L8.63036 36.0414C8.78352 36.2049 9.22088 36.5558 9.70192 36.9167C10.1858 37.2797 10.725 37.661 11.0883 37.8868C15.0695 40.3608 19.7415 41.2636 24.3432 40.4478C32.1555 39.0629 38.284 32.7702 39.5451 24.8415C39.7255 23.7075 39.7888 21.3217 39.6695 20.1639C39.3075 16.6521 38.0312 13.4099 35.8976 10.5817C35.5727 10.151 35.1949 9.69004 35.058 9.56002L34.9891 9.63254L35.0579 9.56001L34.8216 9.33574L34.7509 9.2686L34.682 9.33765L30.2708 13.7592L25.8595 18.1808ZM10.8699 15.053L10.8699 15.053C10.6269 16.0313 10.6777 17.3972 10.9929 18.3647C11.2497 19.1532 11.5741 19.7748 12.0946 20.3719C12.6133 20.967 13.3235 21.534 14.3456 22.2181C15.91 23.2651 16.7582 23.895 17.38 24.7723C18.0031 25.6516 18.4032 26.7856 19.048 28.8567L19.1435 28.827L19.048 28.8567C19.2664 29.5582 19.5508 30.2766 19.739 30.5936L19.825 30.5425L19.739 30.5936C20.5783 32.0074 21.9766 33.057 23.6062 33.4983C23.9827 33.6003 24.5509 33.6501 25.1114 33.6506C25.6717 33.6511 26.2382 33.6024 26.6108 33.501C28.7714 32.9131 30.4924 31.1827 31.0375 29.0474C31.2595 28.1772 31.261 26.8489 31.0406 25.9855L30.9437 26.0102L31.0406 25.9855C30.8856 25.3781 30.4823 24.4868 30.123 23.9564L30.0402 24.0125L30.123 23.9564C29.7131 23.3517 28.8287 22.5983 27.5057 21.7129L27.4501 21.796L27.5057 21.7129C25.9257 20.6557 25.2681 20.1104 24.6899 19.3885C24.0499 18.5896 23.7855 17.9694 22.8656 15.0515C22.5839 14.1574 22.3832 13.6848 22.0788 13.2087L21.9945 13.2626L22.0788 13.2087C20.9406 11.4289 19.1785 10.4189 17.0605 10.3322C16.6285 10.3144 16.0701 10.3353 15.8166 10.3806C13.4265 10.8079 11.4638 12.6628 10.8699 15.053ZM13.5142 15.4147L13.5142 15.4147C13.9554 15.1451 14.4393 15.2844 14.7475 15.6133C15.0558 15.9423 15.171 16.4435 14.8844 16.8819L14.9681 16.9366L14.8844 16.8819C14.4756 17.507 13.5712 17.4978 13.1369 16.8464L13.0613 16.8968L13.1369 16.8464C12.8238 16.3767 12.9809 15.7404 13.5142 15.4147ZM15.9523 14.1007C15.2399 13.719 15.2399 12.6609 15.9523 12.2792C16.117 12.191 16.2691 12.1479 16.4194 12.1448C16.5699 12.1417 16.7254 12.1786 16.8971 12.2603C17.1688 12.3895 17.356 12.6547 17.4256 12.9505C17.4952 13.2464 17.4439 13.5587 17.2575 13.7807C17.0568 14.0196 16.8455 14.1594 16.6315 14.2109C16.4189 14.262 16.1918 14.229 15.9523 14.1007ZM16.7278 16.9815L16.6424 17.0335L16.7278 16.9815C16.3825 16.4141 16.6812 15.6157 17.3025 15.4269C17.9538 15.229 18.6265 15.7405 18.6265 16.4497C18.6265 16.9466 18.2864 17.2937 17.8718 17.4098C17.4572 17.526 16.9862 17.4061 16.7278 16.9815Z" fill="#A10702" stroke="#A10702" stroke-width="0.2"/>
</svg>
