<svg width="62" height="64" viewBox="0 0 62 64" fill="none" xmlns="http://www.w3.org/2000/svg">
<path fill-rule="evenodd" clip-rule="evenodd" d="M44.7829 0.42989C44.2664 0.694492 43.6566 1.16458 43.4278 1.4745C43.0341 2.00765 39.9688 8.01717 38.9619 10.2298C38.4444 11.3671 37.8059 11.981 37.1409 11.981C36.8996 11.981 35.9297 11.668 34.9856 11.2854C32.0473 10.0948 30.9636 9.92062 26.5083 9.92242C23.0826 9.92385 22.3522 9.97634 20.6518 10.3429C16.2753 11.2865 13.0361 12.708 10.2659 14.9009C9.58084 15.4432 9.1665 15.8992 9.19995 16.074C9.23001 16.2313 9.65253 16.5088 10.1389 16.6906C11.1877 17.0828 11.4757 17.2985 11.4748 17.6908C11.4744 17.882 9.26221 19.3375 5.06103 21.9114C-1.76974 26.0961 -1.95849 26.2613 0.271879 26.0988C1.39979 26.0166 2.58071 25.3838 10.8198 20.4463C12.8562 19.2258 14.8576 18.1068 15.2673 17.9597C16.3042 17.5869 17.4362 17.7766 18.0869 18.432C18.7226 19.0721 18.7185 19.351 18.0551 20.6185C17.036 22.5651 17.2161 24.0749 18.5749 24.9784C19.408 25.5321 22.6763 26.9066 24.324 27.3958C27.0257 28.198 27.3089 28.525 27.3089 30.8416C27.3089 32.6343 26.9924 33.6778 26.1893 34.5331C25.7869 34.9618 23.9937 35.9478 20.1038 37.8792C13.0471 41.383 11.8569 41.8834 5.19357 44.1483C2.15872 45.1799 -0.431372 46.1134 -0.562131 46.2227C-0.865633 46.4763 -0.859763 47.4473 -0.552168 47.8554C-0.173234 48.3581 0.581787 48.2347 3.76803 47.1498L6.76107 46.1304L13.3435 45.9987C21.6002 45.8336 25.2756 45.4541 29.7954 44.2999C30.7227 44.063 31.5487 43.8694 31.6309 43.8694C31.8639 43.8694 31.6229 44.5147 30.5937 46.6462C30.0705 47.73 29.5603 48.986 29.4601 49.4373C29.0952 51.0803 29.8682 52.325 31.8355 53.2621C32.3704 53.5171 33.0018 53.9868 33.2388 54.3062C33.7029 54.9323 34.1699 56.189 34.0012 56.3589C33.9443 56.4162 32.8354 56.5778 31.5373 56.7181C28.4622 57.0502 19.6978 56.9302 16.3678 56.5104C10.5913 55.782 3.7031 54.5244 2.08916 53.9035C1.57449 53.7055 0.961076 53.5434 0.726244 53.5434C0.0352681 53.5434 -0.556438 54.4311 -0.807103 55.8438C-1.22055 58.174 -0.793049 59.6151 0.494614 60.2305C1.29198 60.6113 10.1113 62.5821 12.9877 63.0221C17.8293 63.7625 20.8556 63.9918 25.8857 63.9997C29.4836 64.0053 31.4604 63.9243 33.3576 63.6937C40.7995 62.7892 46.085 61.0918 48.2454 58.9123C49.3481 57.8001 50.3331 55.9895 50.6903 54.4189C50.8334 53.7895 51.0264 52.2872 51.1191 51.0805C51.3557 48.0018 51.6092 47.5294 53.8165 46.0537C56.3325 44.3715 57.7285 42.9027 60.1969 39.34C61.6659 37.2199 62 36.5152 62 35.5372C62 34.0306 61.3912 33.3122 59.2425 32.2837C58.0968 31.7353 57.5691 31.5895 56.5368 31.5361C54.4165 31.4265 53.8008 32.0198 52.4747 35.4494C51.5274 37.8998 50.3006 40.2268 49.5208 41.0521C48.8957 41.7139 48.7884 41.7608 48.0841 41.6804C47.5648 41.6211 46.8759 41.2993 45.9163 40.6678C43.985 39.3971 42.5499 38.9781 40.4298 39.0661C38.8724 39.1307 38.6589 39.1908 36.4709 40.1793C30.5978 42.8328 24.8181 43.9384 14.8557 44.3142L12.0982 44.4183L13.1668 43.9892C14.7221 43.3649 16.0937 42.6437 19.8126 40.4948C23.4208 38.4097 25.3317 37.5659 27.6647 37.0268C31.6712 36.1012 32.562 35.7604 34.6429 34.3584C37.2275 32.6167 40.8388 28.2324 42.0256 25.3953C42.4561 24.3659 42.5075 24.0079 42.544 21.7838C42.5664 20.4261 42.6799 19.0153 42.7962 18.6487C43.4737 16.5165 45.7975 13.1034 47.3228 12.0004C48.5048 11.1456 49.1189 11.1016 49.9915 11.8092C52.1861 13.5883 53.5852 13.4583 56.1415 11.2372C56.8686 10.6055 57.8022 9.82353 58.216 9.49981C59.8668 8.20833 59.5867 6.84053 57.2126 4.59777C54.5377 2.07053 50.4578 0.203089 47.234 0.0302107C45.8581 -0.0435983 45.6372 -0.00758954 44.7829 0.42989ZM44.8893 2.43528C44.0661 2.94943 41.7272 7.51037 40.7447 10.5174C40.2136 12.1426 39.7513 14.0004 39.8525 14.1023C39.8874 14.1376 40.6176 13.211 41.4753 12.0435C43.2865 9.57773 44.2317 8.52184 45.5306 7.51269C46.7121 6.59474 47.2113 6.57664 47.8562 7.42796C48.4365 8.19417 49.2945 8.75473 49.8884 8.75562C50.5354 8.7567 53.9944 5.10888 53.9944 4.42561C53.9944 3.76026 53.3818 3.45982 51.6816 3.29142C50.9478 3.21869 49.4018 2.92722 48.2461 2.64362C45.8222 2.04867 45.5365 2.03094 44.8893 2.43528ZM30.1553 12.1272C30.1553 12.4588 31.4524 13.4033 33.0491 14.2345C35.631 15.5785 36.467 16.6421 35.7509 17.6715L35.4757 18.067L34.5606 17.3386C32.8246 15.9568 31.1977 15.3422 27.2697 14.5844C24.4293 14.0366 23.5973 14.0195 22.679 14.4914C21.5945 15.0486 21.3986 15.4572 19.8008 20.4923L18.8341 23.5395L20.7142 23.4766C23.0362 23.3988 23.9424 23.6955 26.0358 25.2179C28.3267 26.8838 29.6101 27.0424 32.1233 25.9698C34.6732 24.8817 35.9256 23.5484 36.1443 21.6889C36.2471 20.8148 36.2613 20.7976 37.2955 20.2998C38.6908 19.6283 38.7964 19.7451 38.7408 21.8981C38.6943 23.6953 38.2277 25.8444 37.6257 27.0327C37.0735 28.1226 35.9479 29.2762 34.5446 30.1903C33.8676 30.6312 32.543 31.7568 31.6012 32.6914C30.0015 34.2785 29.9354 34.3718 30.6001 34.1044C33.6974 32.8588 38.8219 28.1201 40.1885 25.238C40.6867 24.1871 40.7404 23.9076 40.7388 22.3716C40.7374 20.9574 40.6612 20.4877 40.2876 19.5934C39.3109 17.2544 37.3914 15.0052 35.3145 13.7664C33.6371 12.7657 30.1553 11.6596 30.1553 12.1272ZM38.072 41.342C36.5276 41.7954 35.2955 42.4844 34.5572 43.3074C33.7938 44.1584 33.5869 45.0149 33.8904 46.0681C34.0105 46.4846 34.0843 47.0672 34.0548 47.3628C33.7753 50.1507 34.0833 51.0711 36.3133 54.1138C37.0848 55.1666 37.9254 56.3413 38.1811 56.7243C39.0443 58.0173 41.093 58.5782 43.6737 58.2283C45.8274 57.9361 46.4566 57.7227 47.2253 57.0233C48.0399 56.2824 48.5619 55.1229 49.0198 53.0375C49.4335 51.1541 49.4514 50.4615 49.104 49.785C48.7322 49.0613 48.1977 48.9321 47.6637 49.4373C47.138 49.9346 47.1228 50.4717 47.5991 51.7335C47.7998 52.2652 47.94 52.9907 47.9104 53.3458L47.8567 53.9913L46.8788 54.047C44.0273 54.2093 42.0914 52.449 42.2962 49.8802C42.428 48.2266 43.0222 47.2273 44.7518 45.7508C46.4692 44.2843 46.687 43.998 46.4208 43.5559C46.0791 42.9883 44.0332 41.7345 42.8466 41.3654C41.4102 40.9186 39.5451 40.9095 38.072 41.342Z" fill="#A10702"/>
</svg>
